<svg xmlns="http://www.w3.org/2000/svg" xmlns:xlink="http://www.w3.org/1999/xlink" width="600" zoomAndPan="magnify" viewBox="0 0 450 225" height="300" preserveAspectRatio="xMidYMid meet" version="1.0"><defs><g/><clipPath id="364a7da1e2"><path d="M 0.519531 0 L 283.480469 0 L 283.480469 219.839844 L 0.519531 219.839844 Z M 0.519531 0 " clip-rule="nonzero"/></clipPath><clipPath id="8a331f2d64"><rect x="0" width="284" y="0" height="220"/></clipPath><clipPath id="e3ce69cb40"><rect x="0" width="259" y="0" height="24"/></clipPath><clipPath id="76adf8aaa9"><rect x="0" width="284" y="0" height="220"/></clipPath></defs><g transform="matrix(1, 0, 0, 1, 83, -0.000000000000008531)"><g clip-path="url(#76adf8aaa9)"><g clip-path="url(#364a7da1e2)"><g transform="matrix(1, 0, 0, 1, 0, -0.000000000000008531)"><g clip-path="url(#8a331f2d64)"><g fill="#00bf63" fill-opacity="1"><g transform="translate(0.712909, 168.086798)"><g><path d="M 54.6875 -125.53125 C 66.082031 -125.53125 75.554688 -124.140625 83.109375 -121.359375 C 90.671875 -118.585938 96.351562 -114.453125 100.15625 -108.953125 C 103.957031 -103.460938 105.859375 -96.625 105.859375 -88.4375 C 105.859375 -83.34375 105 -78.707031 103.28125 -74.53125 C 101.570312 -70.351562 99.128906 -66.617188 95.953125 -63.328125 C 92.773438 -60.035156 88.984375 -57.15625 84.578125 -54.6875 L 121.15625 0 L 82.6875 0 L 56.0625 -45.671875 L 47.484375 -45.671875 L 47.484375 0 L 13.5625 0 L 13.5625 -125.53125 Z M 54.171875 -99.859375 L 47.484375 -99.859375 L 47.484375 -71.171875 L 53.828125 -71.171875 C 59.035156 -71.171875 63.300781 -72.316406 66.625 -74.609375 C 69.945312 -76.898438 71.609375 -80.992188 71.609375 -86.890625 C 71.609375 -90.953125 70.234375 -94.128906 67.484375 -96.421875 C 64.734375 -98.710938 60.296875 -99.859375 54.171875 -99.859375 Z M 54.171875 -99.859375 "/></g></g><g transform="translate(119.715885, 168.086798)"><g><path d="M 13.5625 0 L 13.5625 -125.53125 L 47.484375 -125.53125 L 47.484375 -27.390625 L 95.828125 -27.390625 L 95.828125 0 Z M 13.5625 0 "/></g></g><g transform="translate(222.061878, 168.086798)"><g><path d="M 13.5625 0 L 13.5625 -125.53125 L 47.65625 -125.53125 L 47.65625 0 Z M 13.5625 0 "/></g></g></g></g></g></g><g transform="matrix(1, 0, 0, 1, 12, 168)"><g clip-path="url(#e3ce69cb40)"><g fill="#00bf63" fill-opacity="1"><g transform="translate(0.802564, 18.658135)"><g><path d="M 3.125 -5.109375 L 3.125 0 L 1.6875 0 L 1.6875 -12.296875 L 5.0625 -12.296875 C 6.570312 -12.296875 7.6875 -12.003906 8.40625 -11.421875 C 9.132812 -10.847656 9.5 -9.984375 9.5 -8.828125 C 9.5 -7.203125 8.671875 -6.101562 7.015625 -5.53125 L 10.359375 0 L 8.671875 0 L 5.6875 -5.109375 Z M 3.125 -6.34375 L 5.078125 -6.34375 C 6.085938 -6.34375 6.828125 -6.539062 7.296875 -6.9375 C 7.773438 -7.34375 8.015625 -7.945312 8.015625 -8.75 C 8.015625 -9.5625 7.773438 -10.144531 7.296875 -10.5 C 6.816406 -10.863281 6.046875 -11.046875 4.984375 -11.046875 L 3.125 -11.046875 Z M 3.125 -6.34375 "/></g></g></g><g fill="#00bf63" fill-opacity="1"><g transform="translate(10.24863, 18.658135)"><g><path d="M 5.375 0.171875 C 4.007812 0.171875 2.929688 -0.242188 2.140625 -1.078125 C 1.359375 -1.910156 0.96875 -3.0625 0.96875 -4.53125 C 0.96875 -6.019531 1.332031 -7.203125 2.0625 -8.078125 C 2.800781 -8.953125 3.785156 -9.390625 5.015625 -9.390625 C 6.171875 -9.390625 7.082031 -9.007812 7.75 -8.25 C 8.425781 -7.488281 8.765625 -6.488281 8.765625 -5.25 L 8.765625 -4.359375 L 2.421875 -4.359375 C 2.441406 -3.273438 2.710938 -2.453125 3.234375 -1.890625 C 3.753906 -1.328125 4.484375 -1.046875 5.421875 -1.046875 C 6.421875 -1.046875 7.40625 -1.253906 8.375 -1.671875 L 8.375 -0.421875 C 7.875 -0.210938 7.40625 -0.0625 6.96875 0.03125 C 6.53125 0.125 6 0.171875 5.375 0.171875 Z M 5 -8.21875 C 4.257812 -8.21875 3.664062 -7.976562 3.21875 -7.5 C 2.78125 -7.019531 2.523438 -6.351562 2.453125 -5.5 L 7.265625 -5.5 C 7.265625 -6.375 7.066406 -7.046875 6.671875 -7.515625 C 6.285156 -7.984375 5.726562 -8.21875 5 -8.21875 Z M 5 -8.21875 "/></g></g></g><g fill="#00bf63" fill-opacity="1"><g transform="translate(18.710221, 18.658135)"><g><path d="M 5.765625 0.171875 C 5.171875 0.171875 4.625 0.0625 4.125 -0.15625 C 3.632812 -0.382812 3.21875 -0.726562 2.875 -1.1875 L 2.78125 -1.1875 C 2.84375 -0.644531 2.875 -0.132812 2.875 0.34375 L 2.875 4.140625 L 1.484375 4.140625 L 1.484375 -9.21875 L 2.609375 -9.21875 L 2.8125 -7.953125 L 2.875 -7.953125 C 3.238281 -8.460938 3.65625 -8.828125 4.125 -9.046875 C 4.601562 -9.273438 5.148438 -9.390625 5.765625 -9.390625 C 6.992188 -9.390625 7.941406 -8.972656 8.609375 -8.140625 C 9.273438 -7.304688 9.609375 -6.132812 9.609375 -4.625 C 9.609375 -3.101562 9.269531 -1.921875 8.59375 -1.078125 C 7.914062 -0.242188 6.972656 0.171875 5.765625 0.171875 Z M 5.578125 -8.203125 C 4.628906 -8.203125 3.941406 -7.941406 3.515625 -7.421875 C 3.097656 -6.898438 2.882812 -6.070312 2.875 -4.9375 L 2.875 -4.625 C 2.875 -3.320312 3.085938 -2.390625 3.515625 -1.828125 C 3.953125 -1.273438 4.648438 -1 5.609375 -1 C 6.398438 -1 7.019531 -1.320312 7.46875 -1.96875 C 7.925781 -2.613281 8.15625 -3.503906 8.15625 -4.640625 C 8.15625 -5.785156 7.925781 -6.664062 7.46875 -7.28125 C 7.019531 -7.894531 6.390625 -8.203125 5.578125 -8.203125 Z M 5.578125 -8.203125 "/></g></g></g><g fill="#00bf63" fill-opacity="1"><g transform="translate(28.063729, 18.658135)"><g><path d="M 9.4375 -4.625 C 9.4375 -3.113281 9.054688 -1.9375 8.296875 -1.09375 C 7.546875 -0.25 6.503906 0.171875 5.171875 0.171875 C 4.347656 0.171875 3.613281 -0.0195312 2.96875 -0.40625 C 2.332031 -0.800781 1.835938 -1.359375 1.484375 -2.078125 C 1.140625 -2.804688 0.96875 -3.65625 0.96875 -4.625 C 0.96875 -6.125 1.34375 -7.289062 2.09375 -8.125 C 2.84375 -8.96875 3.882812 -9.390625 5.21875 -9.390625 C 6.507812 -9.390625 7.535156 -8.957031 8.296875 -8.09375 C 9.054688 -7.238281 9.4375 -6.082031 9.4375 -4.625 Z M 2.421875 -4.625 C 2.421875 -3.445312 2.65625 -2.546875 3.125 -1.921875 C 3.59375 -1.304688 4.285156 -1 5.203125 -1 C 6.117188 -1 6.8125 -1.304688 7.28125 -1.921875 C 7.757812 -2.535156 8 -3.4375 8 -4.625 C 8 -5.789062 7.757812 -6.675781 7.28125 -7.28125 C 6.8125 -7.894531 6.113281 -8.203125 5.1875 -8.203125 C 4.269531 -8.203125 3.578125 -7.898438 3.109375 -7.296875 C 2.648438 -6.703125 2.421875 -5.8125 2.421875 -4.625 Z M 2.421875 -4.625 "/></g></g></g><g fill="#00bf63" fill-opacity="1"><g transform="translate(37.26578, 18.658135)"><g><path d="M 7.4375 -2.515625 C 7.4375 -1.660156 7.113281 -1 6.46875 -0.53125 C 5.832031 -0.0625 4.9375 0.171875 3.78125 0.171875 C 2.550781 0.171875 1.597656 -0.0195312 0.921875 -0.40625 L 0.921875 -1.703125 C 1.359375 -1.484375 1.832031 -1.304688 2.34375 -1.171875 C 2.851562 -1.046875 3.34375 -0.984375 3.8125 -0.984375 C 4.539062 -0.984375 5.097656 -1.097656 5.484375 -1.328125 C 5.878906 -1.566406 6.078125 -1.921875 6.078125 -2.390625 C 6.078125 -2.753906 5.921875 -3.0625 5.609375 -3.3125 C 5.304688 -3.570312 4.703125 -3.875 3.796875 -4.21875 C 2.929688 -4.539062 2.316406 -4.820312 1.953125 -5.0625 C 1.597656 -5.300781 1.332031 -5.570312 1.15625 -5.875 C 0.976562 -6.175781 0.890625 -6.535156 0.890625 -6.953125 C 0.890625 -7.710938 1.191406 -8.304688 1.796875 -8.734375 C 2.410156 -9.171875 3.253906 -9.390625 4.328125 -9.390625 C 5.316406 -9.390625 6.285156 -9.1875 7.234375 -8.78125 L 6.734375 -7.65625 C 5.816406 -8.03125 4.976562 -8.21875 4.21875 -8.21875 C 3.5625 -8.21875 3.0625 -8.113281 2.71875 -7.90625 C 2.382812 -7.695312 2.21875 -7.410156 2.21875 -7.046875 C 2.21875 -6.804688 2.28125 -6.597656 2.40625 -6.421875 C 2.53125 -6.242188 2.734375 -6.078125 3.015625 -5.921875 C 3.296875 -5.765625 3.835938 -5.539062 4.640625 -5.25 C 5.734375 -4.84375 6.472656 -4.4375 6.859375 -4.03125 C 7.242188 -3.632812 7.4375 -3.128906 7.4375 -2.515625 Z M 7.4375 -2.515625 "/></g></g></g><g fill="#00bf63" fill-opacity="1"><g transform="translate(44.280106, 18.658135)"><g><path d="M 2.875 0 L 1.484375 0 L 1.484375 -9.21875 L 2.875 -9.21875 Z M 1.359375 -11.71875 C 1.359375 -12.039062 1.4375 -12.273438 1.59375 -12.421875 C 1.75 -12.566406 1.945312 -12.640625 2.1875 -12.640625 C 2.414062 -12.640625 2.609375 -12.5625 2.765625 -12.40625 C 2.929688 -12.257812 3.015625 -12.03125 3.015625 -11.71875 C 3.015625 -11.40625 2.929688 -11.171875 2.765625 -11.015625 C 2.609375 -10.859375 2.414062 -10.78125 2.1875 -10.78125 C 1.945312 -10.78125 1.75 -10.859375 1.59375 -11.015625 C 1.4375 -11.171875 1.359375 -11.40625 1.359375 -11.71875 Z M 1.359375 -11.71875 "/></g></g></g><g fill="#00bf63" fill-opacity="1"><g transform="translate(47.432259, 18.658135)"><g><path d="M 4.453125 -0.984375 C 4.703125 -0.984375 4.941406 -1 5.171875 -1.03125 C 5.398438 -1.070312 5.582031 -1.113281 5.71875 -1.15625 L 5.71875 -0.078125 C 5.570312 -0.00390625 5.347656 0.0507812 5.046875 0.09375 C 4.753906 0.144531 4.492188 0.171875 4.265625 0.171875 C 2.472656 0.171875 1.578125 -0.769531 1.578125 -2.65625 L 1.578125 -8.140625 L 0.265625 -8.140625 L 0.265625 -8.8125 L 1.578125 -9.390625 L 2.171875 -11.359375 L 2.984375 -11.359375 L 2.984375 -9.21875 L 5.65625 -9.21875 L 5.65625 -8.140625 L 2.984375 -8.140625 L 2.984375 -2.703125 C 2.984375 -2.148438 3.113281 -1.722656 3.375 -1.421875 C 3.632812 -1.128906 3.992188 -0.984375 4.453125 -0.984375 Z M 4.453125 -0.984375 "/></g></g></g><g fill="#00bf63" fill-opacity="1"><g transform="translate(52.309347, 18.658135)"><g><path d="M 9.4375 -4.625 C 9.4375 -3.113281 9.054688 -1.9375 8.296875 -1.09375 C 7.546875 -0.25 6.503906 0.171875 5.171875 0.171875 C 4.347656 0.171875 3.613281 -0.0195312 2.96875 -0.40625 C 2.332031 -0.800781 1.835938 -1.359375 1.484375 -2.078125 C 1.140625 -2.804688 0.96875 -3.65625 0.96875 -4.625 C 0.96875 -6.125 1.34375 -7.289062 2.09375 -8.125 C 2.84375 -8.96875 3.882812 -9.390625 5.21875 -9.390625 C 6.507812 -9.390625 7.535156 -8.957031 8.296875 -8.09375 C 9.054688 -7.238281 9.4375 -6.082031 9.4375 -4.625 Z M 2.421875 -4.625 C 2.421875 -3.445312 2.65625 -2.546875 3.125 -1.921875 C 3.59375 -1.304688 4.285156 -1 5.203125 -1 C 6.117188 -1 6.8125 -1.304688 7.28125 -1.921875 C 7.757812 -2.535156 8 -3.4375 8 -4.625 C 8 -5.789062 7.757812 -6.675781 7.28125 -7.28125 C 6.8125 -7.894531 6.113281 -8.203125 5.1875 -8.203125 C 4.269531 -8.203125 3.578125 -7.898438 3.109375 -7.296875 C 2.648438 -6.703125 2.421875 -5.8125 2.421875 -4.625 Z M 4.03125 -10.65625 C 4.300781 -11 4.585938 -11.414062 4.890625 -11.90625 C 5.203125 -12.40625 5.453125 -12.835938 5.640625 -13.203125 L 7.328125 -13.203125 L 7.328125 -13.03125 C 7.085938 -12.664062 6.722656 -12.210938 6.234375 -11.671875 C 5.742188 -11.140625 5.316406 -10.726562 4.953125 -10.4375 L 4.03125 -10.4375 Z M 4.03125 -10.65625 "/></g></g></g><g fill="#00bf63" fill-opacity="1"><g transform="translate(61.511398, 18.658135)"><g><path d="M 5.6875 -9.390625 C 6.09375 -9.390625 6.460938 -9.359375 6.796875 -9.296875 L 6.59375 -8 C 6.21875 -8.082031 5.882812 -8.125 5.59375 -8.125 C 4.84375 -8.125 4.203125 -7.816406 3.671875 -7.203125 C 3.140625 -6.597656 2.875 -5.847656 2.875 -4.953125 L 2.875 0 L 1.484375 0 L 1.484375 -9.21875 L 2.640625 -9.21875 L 2.796875 -7.515625 L 2.859375 -7.515625 C 3.203125 -8.117188 3.613281 -8.582031 4.09375 -8.90625 C 4.582031 -9.226562 5.113281 -9.390625 5.6875 -9.390625 Z M 5.6875 -9.390625 "/></g></g></g><g fill="#00bf63" fill-opacity="1"><g transform="translate(67.339305, 18.658135)"><g><path d="M 2.875 0 L 1.484375 0 L 1.484375 -9.21875 L 2.875 -9.21875 Z M 1.359375 -11.71875 C 1.359375 -12.039062 1.4375 -12.273438 1.59375 -12.421875 C 1.75 -12.566406 1.945312 -12.640625 2.1875 -12.640625 C 2.414062 -12.640625 2.609375 -12.5625 2.765625 -12.40625 C 2.929688 -12.257812 3.015625 -12.03125 3.015625 -11.71875 C 3.015625 -11.40625 2.929688 -11.171875 2.765625 -11.015625 C 2.609375 -10.859375 2.414062 -10.78125 2.1875 -10.78125 C 1.945312 -10.78125 1.75 -10.859375 1.59375 -11.015625 C 1.4375 -11.171875 1.359375 -11.40625 1.359375 -11.71875 Z M 1.359375 -11.71875 "/></g></g></g><g fill="#00bf63" fill-opacity="1"><g transform="translate(70.491457, 18.658135)"><g><path d="M 9.4375 -4.625 C 9.4375 -3.113281 9.054688 -1.9375 8.296875 -1.09375 C 7.546875 -0.25 6.503906 0.171875 5.171875 0.171875 C 4.347656 0.171875 3.613281 -0.0195312 2.96875 -0.40625 C 2.332031 -0.800781 1.835938 -1.359375 1.484375 -2.078125 C 1.140625 -2.804688 0.96875 -3.65625 0.96875 -4.625 C 0.96875 -6.125 1.34375 -7.289062 2.09375 -8.125 C 2.84375 -8.96875 3.882812 -9.390625 5.21875 -9.390625 C 6.507812 -9.390625 7.535156 -8.957031 8.296875 -8.09375 C 9.054688 -7.238281 9.4375 -6.082031 9.4375 -4.625 Z M 2.421875 -4.625 C 2.421875 -3.445312 2.65625 -2.546875 3.125 -1.921875 C 3.59375 -1.304688 4.285156 -1 5.203125 -1 C 6.117188 -1 6.8125 -1.304688 7.28125 -1.921875 C 7.757812 -2.535156 8 -3.4375 8 -4.625 C 8 -5.789062 7.757812 -6.675781 7.28125 -7.28125 C 6.8125 -7.894531 6.113281 -8.203125 5.1875 -8.203125 C 4.269531 -8.203125 3.578125 -7.898438 3.109375 -7.296875 C 2.648438 -6.703125 2.421875 -5.8125 2.421875 -4.625 Z M 2.421875 -4.625 "/></g></g></g><g fill="#00bf63" fill-opacity="1"><g transform="translate(79.693512, 18.658135)"><g/></g></g><g fill="#00bf63" fill-opacity="1"><g transform="translate(82.963457, 18.658135)"><g><path d="M 7.765625 -1.234375 L 7.6875 -1.234375 C 7.039062 -0.296875 6.070312 0.171875 4.78125 0.171875 C 3.582031 0.171875 2.644531 -0.238281 1.96875 -1.0625 C 1.300781 -1.894531 0.96875 -3.070312 0.96875 -4.59375 C 0.96875 -6.101562 1.300781 -7.28125 1.96875 -8.125 C 2.644531 -8.96875 3.582031 -9.390625 4.78125 -9.390625 C 6.039062 -9.390625 7.003906 -8.9375 7.671875 -8.03125 L 7.78125 -8.03125 L 7.71875 -8.6875 L 7.6875 -9.34375 L 7.6875 -13.09375 L 9.078125 -13.09375 L 9.078125 0 L 7.9375 0 Z M 4.96875 -1 C 5.914062 -1 6.601562 -1.257812 7.03125 -1.78125 C 7.46875 -2.300781 7.6875 -3.140625 7.6875 -4.296875 L 7.6875 -4.59375 C 7.6875 -5.894531 7.46875 -6.820312 7.03125 -7.375 C 6.59375 -7.9375 5.898438 -8.21875 4.953125 -8.21875 C 4.128906 -8.21875 3.5 -7.898438 3.0625 -7.265625 C 2.632812 -6.628906 2.421875 -5.726562 2.421875 -4.5625 C 2.421875 -3.382812 2.632812 -2.492188 3.0625 -1.890625 C 3.5 -1.296875 4.132812 -1 4.96875 -1 Z M 4.96875 -1 "/></g></g></g><g fill="#00bf63" fill-opacity="1"><g transform="translate(92.316969, 18.658135)"><g><path d="M 5.375 0.171875 C 4.007812 0.171875 2.929688 -0.242188 2.140625 -1.078125 C 1.359375 -1.910156 0.96875 -3.0625 0.96875 -4.53125 C 0.96875 -6.019531 1.332031 -7.203125 2.0625 -8.078125 C 2.800781 -8.953125 3.785156 -9.390625 5.015625 -9.390625 C 6.171875 -9.390625 7.082031 -9.007812 7.75 -8.25 C 8.425781 -7.488281 8.765625 -6.488281 8.765625 -5.25 L 8.765625 -4.359375 L 2.421875 -4.359375 C 2.441406 -3.273438 2.710938 -2.453125 3.234375 -1.890625 C 3.753906 -1.328125 4.484375 -1.046875 5.421875 -1.046875 C 6.421875 -1.046875 7.40625 -1.253906 8.375 -1.671875 L 8.375 -0.421875 C 7.875 -0.210938 7.40625 -0.0625 6.96875 0.03125 C 6.53125 0.125 6 0.171875 5.375 0.171875 Z M 5 -8.21875 C 4.257812 -8.21875 3.664062 -7.976562 3.21875 -7.5 C 2.78125 -7.019531 2.523438 -6.351562 2.453125 -5.5 L 7.265625 -5.5 C 7.265625 -6.375 7.066406 -7.046875 6.671875 -7.515625 C 6.285156 -7.984375 5.726562 -8.21875 5 -8.21875 Z M 5 -8.21875 "/></g></g></g><g fill="#00bf63" fill-opacity="1"><g transform="translate(100.778555, 18.658135)"><g/></g></g><g fill="#00bf63" fill-opacity="1"><g transform="translate(104.048517, 18.658135)"><g><path d="M 1.6875 0 L 1.6875 -12.296875 L 3.125 -12.296875 L 3.125 -1.296875 L 8.546875 -1.296875 L 8.546875 0 Z M 1.6875 0 "/></g></g></g><g fill="#00bf63" fill-opacity="1"><g transform="translate(111.786471, 18.658135)"><g><path d="M 5.375 0.171875 C 4.007812 0.171875 2.929688 -0.242188 2.140625 -1.078125 C 1.359375 -1.910156 0.96875 -3.0625 0.96875 -4.53125 C 0.96875 -6.019531 1.332031 -7.203125 2.0625 -8.078125 C 2.800781 -8.953125 3.785156 -9.390625 5.015625 -9.390625 C 6.171875 -9.390625 7.082031 -9.007812 7.75 -8.25 C 8.425781 -7.488281 8.765625 -6.488281 8.765625 -5.25 L 8.765625 -4.359375 L 2.421875 -4.359375 C 2.441406 -3.273438 2.710938 -2.453125 3.234375 -1.890625 C 3.753906 -1.328125 4.484375 -1.046875 5.421875 -1.046875 C 6.421875 -1.046875 7.40625 -1.253906 8.375 -1.671875 L 8.375 -0.421875 C 7.875 -0.210938 7.40625 -0.0625 6.96875 0.03125 C 6.53125 0.125 6 0.171875 5.375 0.171875 Z M 5 -8.21875 C 4.257812 -8.21875 3.664062 -7.976562 3.21875 -7.5 C 2.78125 -7.019531 2.523438 -6.351562 2.453125 -5.5 L 7.265625 -5.5 C 7.265625 -6.375 7.066406 -7.046875 6.671875 -7.515625 C 6.285156 -7.984375 5.726562 -8.21875 5 -8.21875 Z M 5 -8.21875 "/></g></g></g><g fill="#00bf63" fill-opacity="1"><g transform="translate(120.248065, 18.658135)"><g><path d="M 2.875 0 L 1.484375 0 L 1.484375 -9.21875 L 2.875 -9.21875 Z M 1.359375 -11.71875 C 1.359375 -12.039062 1.4375 -12.273438 1.59375 -12.421875 C 1.75 -12.566406 1.945312 -12.640625 2.1875 -12.640625 C 2.414062 -12.640625 2.609375 -12.5625 2.765625 -12.40625 C 2.929688 -12.257812 3.015625 -12.03125 3.015625 -11.71875 C 3.015625 -11.40625 2.929688 -11.171875 2.765625 -11.015625 C 2.609375 -10.859375 2.414062 -10.78125 2.1875 -10.78125 C 1.945312 -10.78125 1.75 -10.859375 1.59375 -11.015625 C 1.4375 -11.171875 1.359375 -11.40625 1.359375 -11.71875 Z M 1.359375 -11.71875 "/></g></g></g><g fill="#00bf63" fill-opacity="1"><g transform="translate(123.400218, 18.658135)"><g><path d="M 7.4375 -2.515625 C 7.4375 -1.660156 7.113281 -1 6.46875 -0.53125 C 5.832031 -0.0625 4.9375 0.171875 3.78125 0.171875 C 2.550781 0.171875 1.597656 -0.0195312 0.921875 -0.40625 L 0.921875 -1.703125 C 1.359375 -1.484375 1.832031 -1.304688 2.34375 -1.171875 C 2.851562 -1.046875 3.34375 -0.984375 3.8125 -0.984375 C 4.539062 -0.984375 5.097656 -1.097656 5.484375 -1.328125 C 5.878906 -1.566406 6.078125 -1.921875 6.078125 -2.390625 C 6.078125 -2.753906 5.921875 -3.0625 5.609375 -3.3125 C 5.304688 -3.570312 4.703125 -3.875 3.796875 -4.21875 C 2.929688 -4.539062 2.316406 -4.820312 1.953125 -5.0625 C 1.597656 -5.300781 1.332031 -5.570312 1.15625 -5.875 C 0.976562 -6.175781 0.890625 -6.535156 0.890625 -6.953125 C 0.890625 -7.710938 1.191406 -8.304688 1.796875 -8.734375 C 2.410156 -9.171875 3.253906 -9.390625 4.328125 -9.390625 C 5.316406 -9.390625 6.285156 -9.1875 7.234375 -8.78125 L 6.734375 -7.65625 C 5.816406 -8.03125 4.976562 -8.21875 4.21875 -8.21875 C 3.5625 -8.21875 3.0625 -8.113281 2.71875 -7.90625 C 2.382812 -7.695312 2.21875 -7.410156 2.21875 -7.046875 C 2.21875 -6.804688 2.28125 -6.597656 2.40625 -6.421875 C 2.53125 -6.242188 2.734375 -6.078125 3.015625 -5.921875 C 3.296875 -5.765625 3.835938 -5.539062 4.640625 -5.25 C 5.734375 -4.84375 6.472656 -4.4375 6.859375 -4.03125 C 7.242188 -3.632812 7.4375 -3.128906 7.4375 -2.515625 Z M 7.4375 -2.515625 "/></g></g></g><g fill="#00bf63" fill-opacity="1"><g transform="translate(130.41454, 18.658135)"><g/></g></g><g fill="#00bf63" fill-opacity="1"><g transform="translate(133.684493, 18.658135)"><g><path d="M 7.765625 -1.234375 L 7.6875 -1.234375 C 7.039062 -0.296875 6.070312 0.171875 4.78125 0.171875 C 3.582031 0.171875 2.644531 -0.238281 1.96875 -1.0625 C 1.300781 -1.894531 0.96875 -3.070312 0.96875 -4.59375 C 0.96875 -6.101562 1.300781 -7.28125 1.96875 -8.125 C 2.644531 -8.96875 3.582031 -9.390625 4.78125 -9.390625 C 6.039062 -9.390625 7.003906 -8.9375 7.671875 -8.03125 L 7.78125 -8.03125 L 7.71875 -8.6875 L 7.6875 -9.34375 L 7.6875 -13.09375 L 9.078125 -13.09375 L 9.078125 0 L 7.9375 0 Z M 4.96875 -1 C 5.914062 -1 6.601562 -1.257812 7.03125 -1.78125 C 7.46875 -2.300781 7.6875 -3.140625 7.6875 -4.296875 L 7.6875 -4.59375 C 7.6875 -5.894531 7.46875 -6.820312 7.03125 -7.375 C 6.59375 -7.9375 5.898438 -8.21875 4.953125 -8.21875 C 4.128906 -8.21875 3.5 -7.898438 3.0625 -7.265625 C 2.632812 -6.628906 2.421875 -5.726562 2.421875 -4.5625 C 2.421875 -3.382812 2.632812 -2.492188 3.0625 -1.890625 C 3.5 -1.296875 4.132812 -1 4.96875 -1 Z M 4.96875 -1 "/></g></g></g><g fill="#00bf63" fill-opacity="1"><g transform="translate(143.037997, 18.658135)"><g><path d="M 5.375 0.171875 C 4.007812 0.171875 2.929688 -0.242188 2.140625 -1.078125 C 1.359375 -1.910156 0.96875 -3.0625 0.96875 -4.53125 C 0.96875 -6.019531 1.332031 -7.203125 2.0625 -8.078125 C 2.800781 -8.953125 3.785156 -9.390625 5.015625 -9.390625 C 6.171875 -9.390625 7.082031 -9.007812 7.75 -8.25 C 8.425781 -7.488281 8.765625 -6.488281 8.765625 -5.25 L 8.765625 -4.359375 L 2.421875 -4.359375 C 2.441406 -3.273438 2.710938 -2.453125 3.234375 -1.890625 C 3.753906 -1.328125 4.484375 -1.046875 5.421875 -1.046875 C 6.421875 -1.046875 7.40625 -1.253906 8.375 -1.671875 L 8.375 -0.421875 C 7.875 -0.210938 7.40625 -0.0625 6.96875 0.03125 C 6.53125 0.125 6 0.171875 5.375 0.171875 Z M 5 -8.21875 C 4.257812 -8.21875 3.664062 -7.976562 3.21875 -7.5 C 2.78125 -7.019531 2.523438 -6.351562 2.453125 -5.5 L 7.265625 -5.5 C 7.265625 -6.375 7.066406 -7.046875 6.671875 -7.515625 C 6.285156 -7.984375 5.726562 -8.21875 5 -8.21875 Z M 5 -8.21875 "/></g></g></g><g fill="#00bf63" fill-opacity="1"><g transform="translate(151.499592, 18.658135)"><g/></g></g><g fill="#00bf63" fill-opacity="1"><g transform="translate(154.769553, 18.658135)"><g><path d="M 1.6875 0 L 1.6875 -12.296875 L 3.125 -12.296875 L 3.125 0 Z M 1.6875 0 "/></g></g></g><g fill="#00bf63" fill-opacity="1"><g transform="translate(158.36766, 18.658135)"><g><path d="M 7.796875 0 L 7.796875 -5.96875 C 7.796875 -6.71875 7.625 -7.273438 7.28125 -7.640625 C 6.9375 -8.015625 6.398438 -8.203125 5.671875 -8.203125 C 4.703125 -8.203125 3.992188 -7.941406 3.546875 -7.421875 C 3.097656 -6.898438 2.875 -6.039062 2.875 -4.84375 L 2.875 0 L 1.484375 0 L 1.484375 -9.21875 L 2.609375 -9.21875 L 2.84375 -7.953125 L 2.90625 -7.953125 C 3.195312 -8.410156 3.597656 -8.765625 4.109375 -9.015625 C 4.628906 -9.265625 5.207031 -9.390625 5.84375 -9.390625 C 6.945312 -9.390625 7.78125 -9.117188 8.34375 -8.578125 C 8.90625 -8.046875 9.1875 -7.191406 9.1875 -6.015625 L 9.1875 0 Z M 7.796875 0 "/></g></g></g><g fill="#00bf63" fill-opacity="1"><g transform="translate(167.738001, 18.658135)"><g><path d="M 9.4375 -4.625 C 9.4375 -3.113281 9.054688 -1.9375 8.296875 -1.09375 C 7.546875 -0.25 6.503906 0.171875 5.171875 0.171875 C 4.347656 0.171875 3.613281 -0.0195312 2.96875 -0.40625 C 2.332031 -0.800781 1.835938 -1.359375 1.484375 -2.078125 C 1.140625 -2.804688 0.96875 -3.65625 0.96875 -4.625 C 0.96875 -6.125 1.34375 -7.289062 2.09375 -8.125 C 2.84375 -8.96875 3.882812 -9.390625 5.21875 -9.390625 C 6.507812 -9.390625 7.535156 -8.957031 8.296875 -8.09375 C 9.054688 -7.238281 9.4375 -6.082031 9.4375 -4.625 Z M 2.421875 -4.625 C 2.421875 -3.445312 2.65625 -2.546875 3.125 -1.921875 C 3.59375 -1.304688 4.285156 -1 5.203125 -1 C 6.117188 -1 6.8125 -1.304688 7.28125 -1.921875 C 7.757812 -2.535156 8 -3.4375 8 -4.625 C 8 -5.789062 7.757812 -6.675781 7.28125 -7.28125 C 6.8125 -7.894531 6.113281 -8.203125 5.1875 -8.203125 C 4.269531 -8.203125 3.578125 -7.898438 3.109375 -7.296875 C 2.648438 -6.703125 2.421875 -5.8125 2.421875 -4.625 Z M 2.421875 -4.625 "/></g></g></g><g fill="#00bf63" fill-opacity="1"><g transform="translate(176.940039, 18.658135)"><g><path d="M 3.5 0 L 0 -9.21875 L 1.5 -9.21875 L 3.484375 -3.75 C 3.929688 -2.46875 4.195312 -1.640625 4.28125 -1.265625 L 4.34375 -1.265625 C 4.40625 -1.554688 4.597656 -2.171875 4.921875 -3.109375 C 5.253906 -4.046875 5.992188 -6.082031 7.140625 -9.21875 L 8.640625 -9.21875 L 5.140625 0 Z M 3.5 0 "/></g></g></g><g fill="#00bf63" fill-opacity="1"><g transform="translate(184.366668, 18.658135)"><g><path d="M 7.15625 0 L 6.875 -1.3125 L 6.8125 -1.3125 C 6.351562 -0.738281 5.894531 -0.347656 5.4375 -0.140625 C 4.976562 0.0664062 4.40625 0.171875 3.71875 0.171875 C 2.800781 0.171875 2.082031 -0.0625 1.5625 -0.53125 C 1.050781 -1.007812 0.796875 -1.679688 0.796875 -2.546875 C 0.796875 -4.410156 2.285156 -5.390625 5.265625 -5.484375 L 6.828125 -5.53125 L 6.828125 -6.09375 C 6.828125 -6.820312 6.671875 -7.359375 6.359375 -7.703125 C 6.046875 -8.046875 5.546875 -8.21875 4.859375 -8.21875 C 4.097656 -8.21875 3.226562 -7.984375 2.25 -7.515625 L 1.828125 -8.578125 C 2.273438 -8.828125 2.769531 -9.019531 3.3125 -9.15625 C 3.851562 -9.300781 4.398438 -9.375 4.953125 -9.375 C 6.046875 -9.375 6.859375 -9.128906 7.390625 -8.640625 C 7.921875 -8.148438 8.1875 -7.367188 8.1875 -6.296875 L 8.1875 0 Z M 4 -0.984375 C 4.863281 -0.984375 5.546875 -1.222656 6.046875 -1.703125 C 6.546875 -2.179688 6.796875 -2.847656 6.796875 -3.703125 L 6.796875 -4.53125 L 5.390625 -4.484375 C 4.285156 -4.441406 3.484375 -4.265625 2.984375 -3.953125 C 2.492188 -3.648438 2.25 -3.175781 2.25 -2.53125 C 2.25 -2.03125 2.398438 -1.644531 2.703125 -1.375 C 3.015625 -1.113281 3.445312 -0.984375 4 -0.984375 Z M 4 -0.984375 "/></g></g></g><g fill="#00bf63" fill-opacity="1"><g transform="translate(192.744111, 18.658135)"><g><path d="M 5.171875 0.171875 C 3.835938 0.171875 2.800781 -0.238281 2.0625 -1.0625 C 1.332031 -1.882812 0.96875 -3.046875 0.96875 -4.546875 C 0.96875 -6.085938 1.335938 -7.28125 2.078125 -8.125 C 2.828125 -8.96875 3.890625 -9.390625 5.265625 -9.390625 C 5.703125 -9.390625 6.140625 -9.34375 6.578125 -9.25 C 7.023438 -9.15625 7.375 -9.039062 7.625 -8.90625 L 7.203125 -7.71875 C 6.890625 -7.84375 6.550781 -7.945312 6.1875 -8.03125 C 5.820312 -8.113281 5.5 -8.15625 5.21875 -8.15625 C 3.351562 -8.15625 2.421875 -6.957031 2.421875 -4.5625 C 2.421875 -3.4375 2.644531 -2.566406 3.09375 -1.953125 C 3.550781 -1.347656 4.234375 -1.046875 5.140625 -1.046875 C 5.898438 -1.046875 6.6875 -1.210938 7.5 -1.546875 L 7.5 -0.3125 C 6.882812 0.0078125 6.109375 0.171875 5.171875 0.171875 Z M 6.421875 2.4375 C 6.421875 2.976562 6.203125 3.394531 5.765625 3.6875 C 5.335938 3.988281 4.707031 4.140625 3.875 4.140625 C 3.582031 4.140625 3.3125 4.113281 3.0625 4.0625 L 3.0625 3.171875 C 3.3125 3.210938 3.601562 3.234375 3.9375 3.234375 C 4.375 3.234375 4.707031 3.175781 4.9375 3.0625 C 5.164062 2.957031 5.28125 2.753906 5.28125 2.453125 C 5.28125 2.210938 5.171875 2.015625 4.953125 1.859375 C 4.734375 1.710938 4.316406 1.59375 3.703125 1.5 L 4.4375 0 L 5.359375 0 L 4.90625 0.96875 C 5.914062 1.1875 6.421875 1.675781 6.421875 2.4375 Z M 6.421875 2.4375 "/></g></g></g><g fill="#00bf63" fill-opacity="1"><g transform="translate(199.741621, 18.658135)"><g><path d="M 7.15625 0 L 6.875 -1.3125 L 6.8125 -1.3125 C 6.351562 -0.738281 5.894531 -0.347656 5.4375 -0.140625 C 4.976562 0.0664062 4.40625 0.171875 3.71875 0.171875 C 2.800781 0.171875 2.082031 -0.0625 1.5625 -0.53125 C 1.050781 -1.007812 0.796875 -1.679688 0.796875 -2.546875 C 0.796875 -4.410156 2.285156 -5.390625 5.265625 -5.484375 L 6.828125 -5.53125 L 6.828125 -6.09375 C 6.828125 -6.820312 6.671875 -7.359375 6.359375 -7.703125 C 6.046875 -8.046875 5.546875 -8.21875 4.859375 -8.21875 C 4.097656 -8.21875 3.226562 -7.984375 2.25 -7.515625 L 1.828125 -8.578125 C 2.273438 -8.828125 2.769531 -9.019531 3.3125 -9.15625 C 3.851562 -9.300781 4.398438 -9.375 4.953125 -9.375 C 6.046875 -9.375 6.859375 -9.128906 7.390625 -8.640625 C 7.921875 -8.148438 8.1875 -7.367188 8.1875 -6.296875 L 8.1875 0 Z M 4 -0.984375 C 4.863281 -0.984375 5.546875 -1.222656 6.046875 -1.703125 C 6.546875 -2.179688 6.796875 -2.847656 6.796875 -3.703125 L 6.796875 -4.53125 L 5.390625 -4.484375 C 4.285156 -4.441406 3.484375 -4.265625 2.984375 -3.953125 C 2.492188 -3.648438 2.25 -3.175781 2.25 -2.53125 C 2.25 -2.03125 2.398438 -1.644531 2.703125 -1.375 C 3.015625 -1.113281 3.445312 -0.984375 4 -0.984375 Z M 6.0625 -10.453125 C 5.820312 -10.453125 5.585938 -10.503906 5.359375 -10.609375 C 5.128906 -10.710938 4.90625 -10.828125 4.6875 -10.953125 C 4.46875 -11.085938 4.253906 -11.207031 4.046875 -11.3125 C 3.835938 -11.414062 3.640625 -11.46875 3.453125 -11.46875 C 3.171875 -11.46875 2.957031 -11.378906 2.8125 -11.203125 C 2.675781 -11.035156 2.566406 -10.78125 2.484375 -10.4375 L 1.65625 -10.4375 C 1.726562 -11.125 1.925781 -11.65625 2.25 -12.03125 C 2.570312 -12.414062 2.988281 -12.609375 3.5 -12.609375 C 3.757812 -12.609375 4.007812 -12.554688 4.25 -12.453125 C 4.488281 -12.347656 4.71875 -12.234375 4.9375 -12.109375 C 5.15625 -11.984375 5.363281 -11.867188 5.5625 -11.765625 C 5.769531 -11.660156 5.960938 -11.609375 6.140625 -11.609375 C 6.421875 -11.609375 6.625 -11.691406 6.75 -11.859375 C 6.882812 -12.023438 7 -12.28125 7.09375 -12.625 L 7.921875 -12.625 C 7.847656 -11.945312 7.648438 -11.414062 7.328125 -11.03125 C 7.015625 -10.644531 6.59375 -10.453125 6.0625 -10.453125 Z M 6.0625 -10.453125 "/></g></g></g><g fill="#00bf63" fill-opacity="1"><g transform="translate(208.119064, 18.658135)"><g><path d="M 9.4375 -4.625 C 9.4375 -3.113281 9.054688 -1.9375 8.296875 -1.09375 C 7.546875 -0.25 6.503906 0.171875 5.171875 0.171875 C 4.347656 0.171875 3.613281 -0.0195312 2.96875 -0.40625 C 2.332031 -0.800781 1.835938 -1.359375 1.484375 -2.078125 C 1.140625 -2.804688 0.96875 -3.65625 0.96875 -4.625 C 0.96875 -6.125 1.34375 -7.289062 2.09375 -8.125 C 2.84375 -8.96875 3.882812 -9.390625 5.21875 -9.390625 C 6.507812 -9.390625 7.535156 -8.957031 8.296875 -8.09375 C 9.054688 -7.238281 9.4375 -6.082031 9.4375 -4.625 Z M 2.421875 -4.625 C 2.421875 -3.445312 2.65625 -2.546875 3.125 -1.921875 C 3.59375 -1.304688 4.285156 -1 5.203125 -1 C 6.117188 -1 6.8125 -1.304688 7.28125 -1.921875 C 7.757812 -2.535156 8 -3.4375 8 -4.625 C 8 -5.789062 7.757812 -6.675781 7.28125 -7.28125 C 6.8125 -7.894531 6.113281 -8.203125 5.1875 -8.203125 C 4.269531 -8.203125 3.578125 -7.898438 3.109375 -7.296875 C 2.648438 -6.703125 2.421875 -5.8125 2.421875 -4.625 Z M 2.421875 -4.625 "/></g></g></g><g fill="#00bf63" fill-opacity="1"><g transform="translate(217.321119, 18.658135)"><g/></g></g><g fill="#00bf63" fill-opacity="1"><g transform="translate(220.591063, 18.658135)"><g><path d="M 1.6875 -12.296875 L 5.171875 -12.296875 C 6.796875 -12.296875 7.972656 -12.050781 8.703125 -11.5625 C 9.429688 -11.082031 9.796875 -10.3125 9.796875 -9.25 C 9.796875 -8.519531 9.59375 -7.914062 9.1875 -7.4375 C 8.78125 -6.96875 8.1875 -6.664062 7.40625 -6.53125 L 7.40625 -6.453125 C 9.28125 -6.128906 10.21875 -5.144531 10.21875 -3.5 C 10.21875 -2.394531 9.84375 -1.535156 9.09375 -0.921875 C 8.351562 -0.304688 7.316406 0 5.984375 0 L 1.6875 0 Z M 3.125 -7.03125 L 5.484375 -7.03125 C 6.492188 -7.03125 7.21875 -7.1875 7.65625 -7.5 C 8.101562 -7.820312 8.328125 -8.359375 8.328125 -9.109375 C 8.328125 -9.804688 8.078125 -10.304688 7.578125 -10.609375 C 7.085938 -10.910156 6.300781 -11.0625 5.21875 -11.0625 L 3.125 -11.0625 Z M 3.125 -5.828125 L 3.125 -1.21875 L 5.6875 -1.21875 C 6.675781 -1.21875 7.421875 -1.410156 7.921875 -1.796875 C 8.429688 -2.179688 8.6875 -2.785156 8.6875 -3.609375 C 8.6875 -4.367188 8.425781 -4.925781 7.90625 -5.28125 C 7.394531 -5.644531 6.617188 -5.828125 5.578125 -5.828125 Z M 3.125 -5.828125 "/></g></g></g><g fill="#00bf63" fill-opacity="1"><g transform="translate(230.550399, 18.658135)"><g><path d="M 5.6875 -9.390625 C 6.09375 -9.390625 6.460938 -9.359375 6.796875 -9.296875 L 6.59375 -8 C 6.21875 -8.082031 5.882812 -8.125 5.59375 -8.125 C 4.84375 -8.125 4.203125 -7.816406 3.671875 -7.203125 C 3.140625 -6.597656 2.875 -5.847656 2.875 -4.953125 L 2.875 0 L 1.484375 0 L 1.484375 -9.21875 L 2.640625 -9.21875 L 2.796875 -7.515625 L 2.859375 -7.515625 C 3.203125 -8.117188 3.613281 -8.582031 4.09375 -8.90625 C 4.582031 -9.226562 5.113281 -9.390625 5.6875 -9.390625 Z M 5.6875 -9.390625 "/></g></g></g><g fill="#00bf63" fill-opacity="1"><g transform="translate(236.378314, 18.658135)"><g><path d="M 7.15625 0 L 6.875 -1.3125 L 6.8125 -1.3125 C 6.351562 -0.738281 5.894531 -0.347656 5.4375 -0.140625 C 4.976562 0.0664062 4.40625 0.171875 3.71875 0.171875 C 2.800781 0.171875 2.082031 -0.0625 1.5625 -0.53125 C 1.050781 -1.007812 0.796875 -1.679688 0.796875 -2.546875 C 0.796875 -4.410156 2.285156 -5.390625 5.265625 -5.484375 L 6.828125 -5.53125 L 6.828125 -6.09375 C 6.828125 -6.820312 6.671875 -7.359375 6.359375 -7.703125 C 6.046875 -8.046875 5.546875 -8.21875 4.859375 -8.21875 C 4.097656 -8.21875 3.226562 -7.984375 2.25 -7.515625 L 1.828125 -8.578125 C 2.273438 -8.828125 2.769531 -9.019531 3.3125 -9.15625 C 3.851562 -9.300781 4.398438 -9.375 4.953125 -9.375 C 6.046875 -9.375 6.859375 -9.128906 7.390625 -8.640625 C 7.921875 -8.148438 8.1875 -7.367188 8.1875 -6.296875 L 8.1875 0 Z M 4 -0.984375 C 4.863281 -0.984375 5.546875 -1.222656 6.046875 -1.703125 C 6.546875 -2.179688 6.796875 -2.847656 6.796875 -3.703125 L 6.796875 -4.53125 L 5.390625 -4.484375 C 4.285156 -4.441406 3.484375 -4.265625 2.984375 -3.953125 C 2.492188 -3.648438 2.25 -3.175781 2.25 -2.53125 C 2.25 -2.03125 2.398438 -1.644531 2.703125 -1.375 C 3.015625 -1.113281 3.445312 -0.984375 4 -0.984375 Z M 4 -0.984375 "/></g></g></g><g fill="#00bf63" fill-opacity="1"><g transform="translate(244.755757, 18.658135)"><g><path d="M 7.4375 -2.515625 C 7.4375 -1.660156 7.113281 -1 6.46875 -0.53125 C 5.832031 -0.0625 4.9375 0.171875 3.78125 0.171875 C 2.550781 0.171875 1.597656 -0.0195312 0.921875 -0.40625 L 0.921875 -1.703125 C 1.359375 -1.484375 1.832031 -1.304688 2.34375 -1.171875 C 2.851562 -1.046875 3.34375 -0.984375 3.8125 -0.984375 C 4.539062 -0.984375 5.097656 -1.097656 5.484375 -1.328125 C 5.878906 -1.566406 6.078125 -1.921875 6.078125 -2.390625 C 6.078125 -2.753906 5.921875 -3.0625 5.609375 -3.3125 C 5.304688 -3.570312 4.703125 -3.875 3.796875 -4.21875 C 2.929688 -4.539062 2.316406 -4.820312 1.953125 -5.0625 C 1.597656 -5.300781 1.332031 -5.570312 1.15625 -5.875 C 0.976562 -6.175781 0.890625 -6.535156 0.890625 -6.953125 C 0.890625 -7.710938 1.191406 -8.304688 1.796875 -8.734375 C 2.410156 -9.171875 3.253906 -9.390625 4.328125 -9.390625 C 5.316406 -9.390625 6.285156 -9.1875 7.234375 -8.78125 L 6.734375 -7.65625 C 5.816406 -8.03125 4.976562 -8.21875 4.21875 -8.21875 C 3.5625 -8.21875 3.0625 -8.113281 2.71875 -7.90625 C 2.382812 -7.695312 2.21875 -7.410156 2.21875 -7.046875 C 2.21875 -6.804688 2.28125 -6.597656 2.40625 -6.421875 C 2.53125 -6.242188 2.734375 -6.078125 3.015625 -5.921875 C 3.296875 -5.765625 3.835938 -5.539062 4.640625 -5.25 C 5.734375 -4.84375 6.472656 -4.4375 6.859375 -4.03125 C 7.242188 -3.632812 7.4375 -3.128906 7.4375 -2.515625 Z M 7.4375 -2.515625 "/></g></g></g><g fill="#00bf63" fill-opacity="1"><g transform="translate(251.770088, 18.658135)"><g><path d="M 2.875 0 L 1.484375 0 L 1.484375 -9.21875 L 2.875 -9.21875 Z M 1.359375 -11.71875 C 1.359375 -12.039062 1.4375 -12.273438 1.59375 -12.421875 C 1.75 -12.566406 1.945312 -12.640625 2.1875 -12.640625 C 2.414062 -12.640625 2.609375 -12.5625 2.765625 -12.40625 C 2.929688 -12.257812 3.015625 -12.03125 3.015625 -11.71875 C 3.015625 -11.40625 2.929688 -11.171875 2.765625 -11.015625 C 2.609375 -10.859375 2.414062 -10.78125 2.1875 -10.78125 C 1.945312 -10.78125 1.75 -10.859375 1.59375 -11.015625 C 1.4375 -11.171875 1.359375 -11.40625 1.359375 -11.71875 Z M 1.359375 -11.71875 "/></g></g></g><g fill="#00bf63" fill-opacity="1"><g transform="translate(254.92224, 18.658135)"><g><path d="M 2.875 0 L 1.484375 0 L 1.484375 -13.09375 L 2.875 -13.09375 Z M 2.875 0 "/></g></g></g></g></g></g></g></svg>