<svg xmlns="http://www.w3.org/2000/svg" xmlns:xlink="http://www.w3.org/1999/xlink" width="2000" zoomAndPan="magnify" viewBox="0 0 1500 899.99999" height="1200" preserveAspectRatio="xMidYMid meet" version="1.0"><defs><g/><clipPath id="f41ac6a3ea"><path d="M 0.800781 0 L 1131.921875 0 L 1131.921875 879.121094 L 0.800781 879.121094 Z M 0.800781 0 " clip-rule="nonzero"/></clipPath><clipPath id="f0124927aa"><rect x="0" width="1132" y="0" height="880"/></clipPath><clipPath id="7d191e931f"><rect x="0" width="1031" y="0" height="95"/></clipPath><clipPath id="ce402b7a27"><rect x="0" width="1132" y="0" height="880"/></clipPath></defs><rect x="-150" width="1800" fill="#ffffff" y="-89.999999" height="1079.999988" fill-opacity="1"/><rect x="-150" width="1800" fill="#ffffff" y="-89.999999" height="1079.999988" fill-opacity="1"/><g transform="matrix(1, 0, 0, 1, 184, 0.000000000000108392)"><g clip-path="url(#ce402b7a27)"><g clip-path="url(#f41ac6a3ea)"><g transform="matrix(1, 0, 0, 1, -0.000000000000028422, 0.000000000000108392)"><g clip-path="url(#f0124927aa)"><g fill="#00bf63" fill-opacity="1"><g transform="translate(0.851663, 672.347165)"><g><path d="M 218.78125 -502.109375 C 264.34375 -502.109375 302.234375 -496.554688 332.453125 -485.453125 C 362.679688 -474.347656 385.40625 -457.804688 400.625 -435.828125 C 415.851562 -413.847656 423.46875 -386.488281 423.46875 -353.75 C 423.46875 -333.375 420.03125 -314.828125 413.15625 -298.109375 C 406.289062 -281.390625 396.503906 -266.445312 383.796875 -253.28125 C 371.085938 -240.125 355.921875 -228.625 338.296875 -218.78125 L 484.59375 0 L 330.734375 0 L 224.265625 -182.71875 L 189.921875 -182.71875 L 189.921875 0 L 54.265625 0 L 54.265625 -502.109375 Z M 216.71875 -399.421875 L 189.921875 -399.421875 L 189.921875 -284.71875 L 215.34375 -284.71875 C 236.175781 -284.71875 253.234375 -289.296875 266.515625 -298.453125 C 279.796875 -307.609375 286.4375 -323.976562 286.4375 -347.5625 C 286.4375 -363.820312 280.941406 -376.53125 269.953125 -385.6875 C 258.960938 -394.84375 241.21875 -399.421875 216.71875 -399.421875 Z M 216.71875 -399.421875 "/></g></g><g transform="translate(476.86356, 672.347165)"><g><path d="M 54.265625 0 L 54.265625 -502.109375 L 189.921875 -502.109375 L 189.921875 -109.5625 L 383.28125 -109.5625 L 383.28125 0 Z M 54.265625 0 "/></g></g><g transform="translate(886.24753, 672.347165)"><g><path d="M 54.265625 0 L 54.265625 -502.109375 L 190.609375 -502.109375 L 190.609375 0 Z M 54.265625 0 "/></g></g></g></g></g></g><g transform="matrix(1, 0, 0, 1, 49, 673)"><g clip-path="url(#7d191e931f)"><g fill="#00bf63" fill-opacity="1"><g transform="translate(0.210299, 73.632512)"><g><path d="M 12.484375 -20.46875 L 12.484375 0 L 6.765625 0 L 6.765625 -49.21875 L 20.265625 -49.21875 C 26.296875 -49.21875 30.753906 -48.0625 33.640625 -45.75 C 36.523438 -43.4375 37.96875 -39.957031 37.96875 -35.3125 C 37.96875 -28.800781 34.671875 -24.398438 28.078125 -22.109375 L 41.4375 0 L 34.671875 0 L 22.75 -20.46875 Z M 12.484375 -25.375 L 20.328125 -25.375 C 24.367188 -25.375 27.332031 -26.175781 29.21875 -27.78125 C 31.101562 -29.382812 32.046875 -31.789062 32.046875 -35 C 32.046875 -38.257812 31.085938 -40.609375 29.171875 -42.046875 C 27.253906 -43.484375 24.171875 -44.203125 19.921875 -44.203125 L 12.484375 -44.203125 Z M 12.484375 -25.375 "/></g></g></g><g fill="#00bf63" fill-opacity="1"><g transform="translate(37.994562, 73.632512)"><g><path d="M 21.515625 0.671875 C 16.054688 0.671875 11.75 -0.988281 8.59375 -4.3125 C 5.445312 -7.632812 3.875 -12.242188 3.875 -18.140625 C 3.875 -24.085938 5.335938 -28.8125 8.265625 -32.3125 C 11.191406 -35.8125 15.125 -37.5625 20.0625 -37.5625 C 24.6875 -37.5625 28.34375 -36.039062 31.03125 -33 C 33.726562 -29.957031 35.078125 -25.945312 35.078125 -20.96875 L 35.078125 -17.4375 L 9.65625 -17.4375 C 9.769531 -13.101562 10.863281 -9.8125 12.9375 -7.5625 C 15.019531 -5.320312 17.945312 -4.203125 21.71875 -4.203125 C 25.6875 -4.203125 29.613281 -5.035156 33.5 -6.703125 L 33.5 -1.71875 C 31.519531 -0.863281 29.648438 -0.253906 27.890625 0.109375 C 26.128906 0.484375 24.003906 0.671875 21.515625 0.671875 Z M 20 -32.890625 C 17.03125 -32.890625 14.664062 -31.921875 12.90625 -29.984375 C 11.144531 -28.054688 10.109375 -25.390625 9.796875 -21.984375 L 29.078125 -21.984375 C 29.078125 -25.503906 28.289062 -28.203125 26.71875 -30.078125 C 25.15625 -31.953125 22.914062 -32.890625 20 -32.890625 Z M 20 -32.890625 "/></g></g></g><g fill="#00bf63" fill-opacity="1"><g transform="translate(71.840923, 73.632512)"><g><path d="M 23.09375 0.671875 C 20.6875 0.671875 18.488281 0.226562 16.5 -0.65625 C 14.519531 -1.539062 12.859375 -2.90625 11.515625 -4.75 L 11.109375 -4.75 C 11.378906 -2.59375 11.515625 -0.550781 11.515625 1.375 L 11.515625 16.5625 L 5.921875 16.5625 L 5.921875 -36.890625 L 10.46875 -36.890625 L 11.25 -31.84375 L 11.515625 -31.84375 C 12.953125 -33.863281 14.625 -35.320312 16.53125 -36.21875 C 18.4375 -37.113281 20.625 -37.5625 23.09375 -37.5625 C 27.976562 -37.5625 31.75 -35.890625 34.40625 -32.546875 C 37.070312 -29.203125 38.40625 -24.515625 38.40625 -18.484375 C 38.40625 -12.421875 37.050781 -7.710938 34.34375 -4.359375 C 31.644531 -1.003906 27.894531 0.671875 23.09375 0.671875 Z M 22.28125 -32.8125 C 18.507812 -32.8125 15.78125 -31.769531 14.09375 -29.6875 C 12.414062 -27.601562 11.554688 -24.28125 11.515625 -19.71875 L 11.515625 -18.484375 C 11.515625 -13.296875 12.378906 -9.582031 14.109375 -7.34375 C 15.835938 -5.113281 18.609375 -4 22.421875 -4 C 25.609375 -4 28.101562 -5.289062 29.90625 -7.875 C 31.71875 -10.457031 32.625 -14.015625 32.625 -18.546875 C 32.625 -23.148438 31.71875 -26.675781 29.90625 -29.125 C 28.101562 -31.582031 25.5625 -32.8125 22.28125 -32.8125 Z M 22.28125 -32.8125 "/></g></g></g><g fill="#00bf63" fill-opacity="1"><g transform="translate(109.254956, 73.632512)"><g><path d="M 37.765625 -18.484375 C 37.765625 -12.460938 36.25 -7.765625 33.21875 -4.390625 C 30.1875 -1.015625 26.003906 0.671875 20.671875 0.671875 C 17.367188 0.671875 14.4375 -0.0976562 11.875 -1.640625 C 9.320312 -3.191406 7.347656 -5.414062 5.953125 -8.3125 C 4.566406 -11.207031 3.875 -14.597656 3.875 -18.484375 C 3.875 -24.492188 5.375 -29.175781 8.375 -32.53125 C 11.382812 -35.882812 15.5625 -37.5625 20.90625 -37.5625 C 26.0625 -37.5625 30.160156 -35.84375 33.203125 -32.40625 C 36.242188 -28.976562 37.765625 -24.335938 37.765625 -18.484375 Z M 9.65625 -18.484375 C 9.65625 -13.765625 10.597656 -10.171875 12.484375 -7.703125 C 14.367188 -5.234375 17.140625 -4 20.796875 -4 C 24.460938 -4 27.242188 -5.226562 29.140625 -7.6875 C 31.035156 -10.144531 31.984375 -13.742188 31.984375 -18.484375 C 31.984375 -23.171875 31.035156 -26.726562 29.140625 -29.15625 C 27.242188 -31.59375 24.441406 -32.8125 20.734375 -32.8125 C 17.078125 -32.8125 14.316406 -31.609375 12.453125 -29.203125 C 10.585938 -26.804688 9.65625 -23.234375 9.65625 -18.484375 Z M 9.65625 -18.484375 "/></g></g></g><g fill="#00bf63" fill-opacity="1"><g transform="translate(146.063158, 73.632512)"><g><path d="M 29.71875 -10.0625 C 29.71875 -6.632812 28.4375 -3.988281 25.875 -2.125 C 23.320312 -0.257812 19.734375 0.671875 15.109375 0.671875 C 10.222656 0.671875 6.410156 -0.101562 3.671875 -1.65625 L 3.671875 -6.828125 C 5.441406 -5.929688 7.34375 -5.222656 9.375 -4.703125 C 11.40625 -4.191406 13.363281 -3.9375 15.25 -3.9375 C 18.164062 -3.9375 20.410156 -4.398438 21.984375 -5.328125 C 23.554688 -6.265625 24.34375 -7.6875 24.34375 -9.59375 C 24.34375 -11.03125 23.71875 -12.257812 22.46875 -13.28125 C 21.21875 -14.300781 18.789062 -15.503906 15.1875 -16.890625 C 11.75 -18.171875 9.304688 -19.285156 7.859375 -20.234375 C 6.410156 -21.191406 5.332031 -22.273438 4.625 -23.484375 C 3.914062 -24.703125 3.5625 -26.15625 3.5625 -27.84375 C 3.5625 -30.84375 4.785156 -33.210938 7.234375 -34.953125 C 9.679688 -36.691406 13.035156 -37.5625 17.296875 -37.5625 C 21.273438 -37.5625 25.160156 -36.753906 28.953125 -35.140625 L 26.96875 -30.59375 C 23.257812 -32.125 19.898438 -32.890625 16.890625 -32.890625 C 14.242188 -32.890625 12.25 -32.472656 10.90625 -31.640625 C 9.5625 -30.804688 8.890625 -29.660156 8.890625 -28.203125 C 8.890625 -27.222656 9.140625 -26.382812 9.640625 -25.6875 C 10.148438 -24.988281 10.960938 -24.320312 12.078125 -23.6875 C 13.203125 -23.0625 15.359375 -22.15625 18.546875 -20.96875 C 22.921875 -19.375 25.875 -17.769531 27.40625 -16.15625 C 28.945312 -14.539062 29.71875 -12.507812 29.71875 -10.0625 Z M 29.71875 -10.0625 "/></g></g></g><g fill="#00bf63" fill-opacity="1"><g transform="translate(174.120465, 73.632512)"><g><path d="M 11.515625 0 L 5.921875 0 L 5.921875 -36.890625 L 11.515625 -36.890625 Z M 5.453125 -46.890625 C 5.453125 -48.171875 5.765625 -49.109375 6.390625 -49.703125 C 7.023438 -50.296875 7.8125 -50.59375 8.75 -50.59375 C 9.644531 -50.59375 10.414062 -50.289062 11.0625 -49.6875 C 11.71875 -49.082031 12.046875 -48.148438 12.046875 -46.890625 C 12.046875 -45.628906 11.71875 -44.691406 11.0625 -44.078125 C 10.414062 -43.460938 9.644531 -43.15625 8.75 -43.15625 C 7.8125 -43.15625 7.023438 -43.460938 6.390625 -44.078125 C 5.765625 -44.691406 5.453125 -45.628906 5.453125 -46.890625 Z M 5.453125 -46.890625 "/></g></g></g><g fill="#00bf63" fill-opacity="1"><g transform="translate(186.729074, 73.632512)"><g><path d="M 17.84375 -3.9375 C 18.832031 -3.9375 19.785156 -4.007812 20.703125 -4.15625 C 21.617188 -4.300781 22.347656 -4.453125 22.890625 -4.609375 L 22.890625 -0.34375 C 22.285156 -0.0507812 21.394531 0.1875 20.21875 0.375 C 19.039062 0.570312 17.976562 0.671875 17.03125 0.671875 C 9.894531 0.671875 6.328125 -3.085938 6.328125 -10.609375 L 6.328125 -32.546875 L 1.046875 -32.546875 L 1.046875 -35.25 L 6.328125 -37.5625 L 8.6875 -45.4375 L 11.921875 -45.4375 L 11.921875 -36.890625 L 22.625 -36.890625 L 22.625 -32.546875 L 11.921875 -32.546875 L 11.921875 -10.84375 C 11.921875 -8.613281 12.445312 -6.90625 13.5 -5.71875 C 14.550781 -4.53125 16 -3.9375 17.84375 -3.9375 Z M 17.84375 -3.9375 "/></g></g></g><g fill="#00bf63" fill-opacity="1"><g transform="translate(206.237427, 73.632512)"><g><path d="M 37.765625 -18.484375 C 37.765625 -12.460938 36.25 -7.765625 33.21875 -4.390625 C 30.1875 -1.015625 26.003906 0.671875 20.671875 0.671875 C 17.367188 0.671875 14.4375 -0.0976562 11.875 -1.640625 C 9.320312 -3.191406 7.347656 -5.414062 5.953125 -8.3125 C 4.566406 -11.207031 3.875 -14.597656 3.875 -18.484375 C 3.875 -24.492188 5.375 -29.175781 8.375 -32.53125 C 11.382812 -35.882812 15.5625 -37.5625 20.90625 -37.5625 C 26.0625 -37.5625 30.160156 -35.84375 33.203125 -32.40625 C 36.242188 -28.976562 37.765625 -24.335938 37.765625 -18.484375 Z M 9.65625 -18.484375 C 9.65625 -13.765625 10.597656 -10.171875 12.484375 -7.703125 C 14.367188 -5.234375 17.140625 -4 20.796875 -4 C 24.460938 -4 27.242188 -5.226562 29.140625 -7.6875 C 31.035156 -10.144531 31.984375 -13.742188 31.984375 -18.484375 C 31.984375 -23.171875 31.035156 -26.726562 29.140625 -29.15625 C 27.242188 -31.59375 24.441406 -32.8125 20.734375 -32.8125 C 17.078125 -32.8125 14.316406 -31.609375 12.453125 -29.203125 C 10.585938 -26.804688 9.65625 -23.234375 9.65625 -18.484375 Z M 16.125 -42.609375 C 17.195312 -44.003906 18.351562 -45.6875 19.59375 -47.65625 C 20.84375 -49.632812 21.828125 -51.351562 22.546875 -52.8125 L 29.34375 -52.8125 L 29.34375 -52.109375 C 28.351562 -50.648438 26.882812 -48.851562 24.9375 -46.71875 C 22.988281 -44.59375 21.296875 -42.941406 19.859375 -41.765625 L 16.125 -41.765625 Z M 16.125 -42.609375 "/></g></g></g><g fill="#00bf63" fill-opacity="1"><g transform="translate(243.04563, 73.632512)"><g><path d="M 22.75 -37.5625 C 24.394531 -37.5625 25.867188 -37.425781 27.171875 -37.15625 L 26.390625 -31.984375 C 24.859375 -32.316406 23.507812 -32.484375 22.34375 -32.484375 C 19.363281 -32.484375 16.8125 -31.269531 14.6875 -28.84375 C 12.570312 -26.425781 11.515625 -23.410156 11.515625 -19.796875 L 11.515625 0 L 5.921875 0 L 5.921875 -36.890625 L 10.53125 -36.890625 L 11.171875 -30.0625 L 11.4375 -30.0625 C 12.8125 -32.457031 14.460938 -34.304688 16.390625 -35.609375 C 18.316406 -36.910156 20.4375 -37.5625 22.75 -37.5625 Z M 22.75 -37.5625 "/></g></g></g><g fill="#00bf63" fill-opacity="1"><g transform="translate(266.357258, 73.632512)"><g><path d="M 11.515625 0 L 5.921875 0 L 5.921875 -36.890625 L 11.515625 -36.890625 Z M 5.453125 -46.890625 C 5.453125 -48.171875 5.765625 -49.109375 6.390625 -49.703125 C 7.023438 -50.296875 7.8125 -50.59375 8.75 -50.59375 C 9.644531 -50.59375 10.414062 -50.289062 11.0625 -49.6875 C 11.71875 -49.082031 12.046875 -48.148438 12.046875 -46.890625 C 12.046875 -45.628906 11.71875 -44.691406 11.0625 -44.078125 C 10.414062 -43.460938 9.644531 -43.15625 8.75 -43.15625 C 7.8125 -43.15625 7.023438 -43.460938 6.390625 -44.078125 C 5.765625 -44.691406 5.453125 -45.628906 5.453125 -46.890625 Z M 5.453125 -46.890625 "/></g></g></g><g fill="#00bf63" fill-opacity="1"><g transform="translate(278.965867, 73.632512)"><g><path d="M 37.765625 -18.484375 C 37.765625 -12.460938 36.25 -7.765625 33.21875 -4.390625 C 30.1875 -1.015625 26.003906 0.671875 20.671875 0.671875 C 17.367188 0.671875 14.4375 -0.0976562 11.875 -1.640625 C 9.320312 -3.191406 7.347656 -5.414062 5.953125 -8.3125 C 4.566406 -11.207031 3.875 -14.597656 3.875 -18.484375 C 3.875 -24.492188 5.375 -29.175781 8.375 -32.53125 C 11.382812 -35.882812 15.5625 -37.5625 20.90625 -37.5625 C 26.0625 -37.5625 30.160156 -35.84375 33.203125 -32.40625 C 36.242188 -28.976562 37.765625 -24.335938 37.765625 -18.484375 Z M 9.65625 -18.484375 C 9.65625 -13.765625 10.597656 -10.171875 12.484375 -7.703125 C 14.367188 -5.234375 17.140625 -4 20.796875 -4 C 24.460938 -4 27.242188 -5.226562 29.140625 -7.6875 C 31.035156 -10.144531 31.984375 -13.742188 31.984375 -18.484375 C 31.984375 -23.171875 31.035156 -26.726562 29.140625 -29.15625 C 27.242188 -31.59375 24.441406 -32.8125 20.734375 -32.8125 C 17.078125 -32.8125 14.316406 -31.609375 12.453125 -29.203125 C 10.585938 -26.804688 9.65625 -23.234375 9.65625 -18.484375 Z M 9.65625 -18.484375 "/></g></g></g><g fill="#00bf63" fill-opacity="1"><g transform="translate(315.774086, 73.632512)"><g/></g></g><g fill="#00bf63" fill-opacity="1"><g transform="translate(328.853864, 73.632512)"><g><path d="M 31.03125 -4.953125 L 30.734375 -4.953125 C 28.148438 -1.203125 24.289062 0.671875 19.15625 0.671875 C 14.332031 0.671875 10.578125 -0.972656 7.890625 -4.265625 C 5.210938 -7.566406 3.875 -12.257812 3.875 -18.34375 C 3.875 -24.425781 5.21875 -29.148438 7.90625 -32.515625 C 10.601562 -35.878906 14.351562 -37.5625 19.15625 -37.5625 C 24.15625 -37.5625 27.992188 -35.742188 30.671875 -32.109375 L 31.109375 -32.109375 L 30.859375 -34.765625 L 30.734375 -37.359375 L 30.734375 -52.375 L 36.3125 -52.375 L 36.3125 0 L 31.78125 0 Z M 19.859375 -4 C 23.671875 -4 26.4375 -5.035156 28.15625 -7.109375 C 29.875 -9.191406 30.734375 -12.546875 30.734375 -17.171875 L 30.734375 -18.34375 C 30.734375 -23.570312 29.863281 -27.300781 28.125 -29.53125 C 26.382812 -31.769531 23.609375 -32.890625 19.796875 -32.890625 C 16.515625 -32.890625 14.003906 -31.613281 12.265625 -29.0625 C 10.523438 -26.519531 9.65625 -22.925781 9.65625 -18.28125 C 9.65625 -13.5625 10.519531 -10 12.25 -7.59375 C 13.976562 -5.195312 16.515625 -4 19.859375 -4 Z M 19.859375 -4 "/></g></g></g><g fill="#00bf63" fill-opacity="1"><g transform="translate(366.267914, 73.632512)"><g><path d="M 21.515625 0.671875 C 16.054688 0.671875 11.75 -0.988281 8.59375 -4.3125 C 5.445312 -7.632812 3.875 -12.242188 3.875 -18.140625 C 3.875 -24.085938 5.335938 -28.8125 8.265625 -32.3125 C 11.191406 -35.8125 15.125 -37.5625 20.0625 -37.5625 C 24.6875 -37.5625 28.34375 -36.039062 31.03125 -33 C 33.726562 -29.957031 35.078125 -25.945312 35.078125 -20.96875 L 35.078125 -17.4375 L 9.65625 -17.4375 C 9.769531 -13.101562 10.863281 -9.8125 12.9375 -7.5625 C 15.019531 -5.320312 17.945312 -4.203125 21.71875 -4.203125 C 25.6875 -4.203125 29.613281 -5.035156 33.5 -6.703125 L 33.5 -1.71875 C 31.519531 -0.863281 29.648438 -0.253906 27.890625 0.109375 C 26.128906 0.484375 24.003906 0.671875 21.515625 0.671875 Z M 20 -32.890625 C 17.03125 -32.890625 14.664062 -31.921875 12.90625 -29.984375 C 11.144531 -28.054688 10.109375 -25.390625 9.796875 -21.984375 L 29.078125 -21.984375 C 29.078125 -25.503906 28.289062 -28.203125 26.71875 -30.078125 C 25.15625 -31.953125 22.914062 -32.890625 20 -32.890625 Z M 20 -32.890625 "/></g></g></g><g fill="#00bf63" fill-opacity="1"><g transform="translate(400.114259, 73.632512)"><g/></g></g><g fill="#00bf63" fill-opacity="1"><g transform="translate(413.194103, 73.632512)"><g><path d="M 6.765625 0 L 6.765625 -49.21875 L 12.484375 -49.21875 L 12.484375 -5.1875 L 34.203125 -5.1875 L 34.203125 0 Z M 6.765625 0 "/></g></g></g><g fill="#00bf63" fill-opacity="1"><g transform="translate(444.14592, 73.632512)"><g><path d="M 21.515625 0.671875 C 16.054688 0.671875 11.75 -0.988281 8.59375 -4.3125 C 5.445312 -7.632812 3.875 -12.242188 3.875 -18.140625 C 3.875 -24.085938 5.335938 -28.8125 8.265625 -32.3125 C 11.191406 -35.8125 15.125 -37.5625 20.0625 -37.5625 C 24.6875 -37.5625 28.34375 -36.039062 31.03125 -33 C 33.726562 -29.957031 35.078125 -25.945312 35.078125 -20.96875 L 35.078125 -17.4375 L 9.65625 -17.4375 C 9.769531 -13.101562 10.863281 -9.8125 12.9375 -7.5625 C 15.019531 -5.320312 17.945312 -4.203125 21.71875 -4.203125 C 25.6875 -4.203125 29.613281 -5.035156 33.5 -6.703125 L 33.5 -1.71875 C 31.519531 -0.863281 29.648438 -0.253906 27.890625 0.109375 C 26.128906 0.484375 24.003906 0.671875 21.515625 0.671875 Z M 20 -32.890625 C 17.03125 -32.890625 14.664062 -31.921875 12.90625 -29.984375 C 11.144531 -28.054688 10.109375 -25.390625 9.796875 -21.984375 L 29.078125 -21.984375 C 29.078125 -25.503906 28.289062 -28.203125 26.71875 -30.078125 C 25.15625 -31.953125 22.914062 -32.890625 20 -32.890625 Z M 20 -32.890625 "/></g></g></g><g fill="#00bf63" fill-opacity="1"><g transform="translate(477.992297, 73.632512)"><g><path d="M 11.515625 0 L 5.921875 0 L 5.921875 -36.890625 L 11.515625 -36.890625 Z M 5.453125 -46.890625 C 5.453125 -48.171875 5.765625 -49.109375 6.390625 -49.703125 C 7.023438 -50.296875 7.8125 -50.59375 8.75 -50.59375 C 9.644531 -50.59375 10.414062 -50.289062 11.0625 -49.6875 C 11.71875 -49.082031 12.046875 -48.148438 12.046875 -46.890625 C 12.046875 -45.628906 11.71875 -44.691406 11.0625 -44.078125 C 10.414062 -43.460938 9.644531 -43.15625 8.75 -43.15625 C 7.8125 -43.15625 7.023438 -43.460938 6.390625 -44.078125 C 5.765625 -44.691406 5.453125 -45.628906 5.453125 -46.890625 Z M 5.453125 -46.890625 "/></g></g></g><g fill="#00bf63" fill-opacity="1"><g transform="translate(490.600906, 73.632512)"><g><path d="M 29.71875 -10.0625 C 29.71875 -6.632812 28.4375 -3.988281 25.875 -2.125 C 23.320312 -0.257812 19.734375 0.671875 15.109375 0.671875 C 10.222656 0.671875 6.410156 -0.101562 3.671875 -1.65625 L 3.671875 -6.828125 C 5.441406 -5.929688 7.34375 -5.222656 9.375 -4.703125 C 11.40625 -4.191406 13.363281 -3.9375 15.25 -3.9375 C 18.164062 -3.9375 20.410156 -4.398438 21.984375 -5.328125 C 23.554688 -6.265625 24.34375 -7.6875 24.34375 -9.59375 C 24.34375 -11.03125 23.71875 -12.257812 22.46875 -13.28125 C 21.21875 -14.300781 18.789062 -15.503906 15.1875 -16.890625 C 11.75 -18.171875 9.304688 -19.285156 7.859375 -20.234375 C 6.410156 -21.191406 5.332031 -22.273438 4.625 -23.484375 C 3.914062 -24.703125 3.5625 -26.15625 3.5625 -27.84375 C 3.5625 -30.84375 4.785156 -33.210938 7.234375 -34.953125 C 9.679688 -36.691406 13.035156 -37.5625 17.296875 -37.5625 C 21.273438 -37.5625 25.160156 -36.753906 28.953125 -35.140625 L 26.96875 -30.59375 C 23.257812 -32.125 19.898438 -32.890625 16.890625 -32.890625 C 14.242188 -32.890625 12.25 -32.472656 10.90625 -31.640625 C 9.5625 -30.804688 8.890625 -29.660156 8.890625 -28.203125 C 8.890625 -27.222656 9.140625 -26.382812 9.640625 -25.6875 C 10.148438 -24.988281 10.960938 -24.320312 12.078125 -23.6875 C 13.203125 -23.0625 15.359375 -22.15625 18.546875 -20.96875 C 22.921875 -19.375 25.875 -17.769531 27.40625 -16.15625 C 28.945312 -14.539062 29.71875 -12.507812 29.71875 -10.0625 Z M 29.71875 -10.0625 "/></g></g></g><g fill="#00bf63" fill-opacity="1"><g transform="translate(518.658196, 73.632512)"><g/></g></g><g fill="#00bf63" fill-opacity="1"><g transform="translate(531.738007, 73.632512)"><g><path d="M 31.03125 -4.953125 L 30.734375 -4.953125 C 28.148438 -1.203125 24.289062 0.671875 19.15625 0.671875 C 14.332031 0.671875 10.578125 -0.972656 7.890625 -4.265625 C 5.210938 -7.566406 3.875 -12.257812 3.875 -18.34375 C 3.875 -24.425781 5.21875 -29.148438 7.90625 -32.515625 C 10.601562 -35.878906 14.351562 -37.5625 19.15625 -37.5625 C 24.15625 -37.5625 27.992188 -35.742188 30.671875 -32.109375 L 31.109375 -32.109375 L 30.859375 -34.765625 L 30.734375 -37.359375 L 30.734375 -52.375 L 36.3125 -52.375 L 36.3125 0 L 31.78125 0 Z M 19.859375 -4 C 23.671875 -4 26.4375 -5.035156 28.15625 -7.109375 C 29.875 -9.191406 30.734375 -12.546875 30.734375 -17.171875 L 30.734375 -18.34375 C 30.734375 -23.570312 29.863281 -27.300781 28.125 -29.53125 C 26.382812 -31.769531 23.609375 -32.890625 19.796875 -32.890625 C 16.515625 -32.890625 14.003906 -31.613281 12.265625 -29.0625 C 10.523438 -26.519531 9.65625 -22.925781 9.65625 -18.28125 C 9.65625 -13.5625 10.519531 -10 12.25 -7.59375 C 13.976562 -5.195312 16.515625 -4 19.859375 -4 Z M 19.859375 -4 "/></g></g></g><g fill="#00bf63" fill-opacity="1"><g transform="translate(569.152024, 73.632512)"><g><path d="M 21.515625 0.671875 C 16.054688 0.671875 11.75 -0.988281 8.59375 -4.3125 C 5.445312 -7.632812 3.875 -12.242188 3.875 -18.140625 C 3.875 -24.085938 5.335938 -28.8125 8.265625 -32.3125 C 11.191406 -35.8125 15.125 -37.5625 20.0625 -37.5625 C 24.6875 -37.5625 28.34375 -36.039062 31.03125 -33 C 33.726562 -29.957031 35.078125 -25.945312 35.078125 -20.96875 L 35.078125 -17.4375 L 9.65625 -17.4375 C 9.769531 -13.101562 10.863281 -9.8125 12.9375 -7.5625 C 15.019531 -5.320312 17.945312 -4.203125 21.71875 -4.203125 C 25.6875 -4.203125 29.613281 -5.035156 33.5 -6.703125 L 33.5 -1.71875 C 31.519531 -0.863281 29.648438 -0.253906 27.890625 0.109375 C 26.128906 0.484375 24.003906 0.671875 21.515625 0.671875 Z M 20 -32.890625 C 17.03125 -32.890625 14.664062 -31.921875 12.90625 -29.984375 C 11.144531 -28.054688 10.109375 -25.390625 9.796875 -21.984375 L 29.078125 -21.984375 C 29.078125 -25.503906 28.289062 -28.203125 26.71875 -30.078125 C 25.15625 -31.953125 22.914062 -32.890625 20 -32.890625 Z M 20 -32.890625 "/></g></g></g><g fill="#00bf63" fill-opacity="1"><g transform="translate(616.078246, 73.632512)"><g><path d="M 6.765625 0 L 6.765625 -49.21875 L 12.484375 -49.21875 L 12.484375 0 Z M 6.765625 0 "/></g></g></g><g fill="#00bf63" fill-opacity="1"><g transform="translate(630.470675, 73.632512)"><g><path d="M 31.171875 0 L 31.171875 -23.859375 C 31.171875 -26.867188 30.484375 -29.113281 29.109375 -30.59375 C 27.742188 -32.070312 25.601562 -32.8125 22.6875 -32.8125 C 18.820312 -32.8125 15.992188 -31.769531 14.203125 -29.6875 C 12.410156 -27.601562 11.515625 -24.160156 11.515625 -19.359375 L 11.515625 0 L 5.921875 0 L 5.921875 -36.890625 L 10.46875 -36.890625 L 11.375 -31.84375 L 11.640625 -31.84375 C 12.785156 -33.65625 14.390625 -35.0625 16.453125 -36.0625 C 18.523438 -37.0625 20.828125 -37.5625 23.359375 -37.5625 C 27.804688 -37.5625 31.148438 -36.488281 33.390625 -34.34375 C 35.628906 -32.207031 36.75 -28.78125 36.75 -24.0625 L 36.75 0 Z M 31.171875 0 "/></g></g></g><g fill="#00bf63" fill-opacity="1"><g transform="translate(667.952039, 73.632512)"><g><path d="M 37.765625 -18.484375 C 37.765625 -12.460938 36.25 -7.765625 33.21875 -4.390625 C 30.1875 -1.015625 26.003906 0.671875 20.671875 0.671875 C 17.367188 0.671875 14.4375 -0.0976562 11.875 -1.640625 C 9.320312 -3.191406 7.347656 -5.414062 5.953125 -8.3125 C 4.566406 -11.207031 3.875 -14.597656 3.875 -18.484375 C 3.875 -24.492188 5.375 -29.175781 8.375 -32.53125 C 11.382812 -35.882812 15.5625 -37.5625 20.90625 -37.5625 C 26.0625 -37.5625 30.160156 -35.84375 33.203125 -32.40625 C 36.242188 -28.976562 37.765625 -24.335938 37.765625 -18.484375 Z M 9.65625 -18.484375 C 9.65625 -13.765625 10.597656 -10.171875 12.484375 -7.703125 C 14.367188 -5.234375 17.140625 -4 20.796875 -4 C 24.460938 -4 27.242188 -5.226562 29.140625 -7.6875 C 31.035156 -10.144531 31.984375 -13.742188 31.984375 -18.484375 C 31.984375 -23.171875 31.035156 -26.726562 29.140625 -29.15625 C 27.242188 -31.59375 24.441406 -32.8125 20.734375 -32.8125 C 17.078125 -32.8125 14.316406 -31.609375 12.453125 -29.203125 C 10.585938 -26.804688 9.65625 -23.234375 9.65625 -18.484375 Z M 9.65625 -18.484375 "/></g></g></g><g fill="#00bf63" fill-opacity="1"><g transform="translate(704.760191, 73.632512)"><g><path d="M 14 0 L 0 -36.890625 L 5.984375 -36.890625 L 13.9375 -15.015625 C 15.726562 -9.898438 16.78125 -6.578125 17.09375 -5.046875 L 17.375 -5.046875 C 17.613281 -6.234375 18.390625 -8.695312 19.703125 -12.4375 C 21.015625 -16.175781 23.960938 -24.328125 28.546875 -36.890625 L 34.53125 -36.890625 L 20.53125 0 Z M 14 0 "/></g></g></g><g fill="#00bf63" fill-opacity="1"><g transform="translate(734.466705, 73.632512)"><g><path d="M 28.609375 0 L 27.5 -5.25 L 27.234375 -5.25 C 25.390625 -2.9375 23.550781 -1.367188 21.71875 -0.546875 C 19.894531 0.265625 17.613281 0.671875 14.875 0.671875 C 11.21875 0.671875 8.351562 -0.269531 6.28125 -2.15625 C 4.207031 -4.039062 3.171875 -6.722656 3.171875 -10.203125 C 3.171875 -17.648438 9.125 -21.550781 21.03125 -21.90625 L 27.296875 -22.109375 L 27.296875 -24.40625 C 27.296875 -27.300781 26.671875 -29.4375 25.421875 -30.8125 C 24.179688 -32.195312 22.191406 -32.890625 19.453125 -32.890625 C 16.378906 -32.890625 12.898438 -31.945312 9.015625 -30.0625 L 7.296875 -34.328125 C 9.117188 -35.316406 11.113281 -36.09375 13.28125 -36.65625 C 15.445312 -37.21875 17.617188 -37.5 19.796875 -37.5 C 24.191406 -37.5 27.445312 -36.519531 29.5625 -34.5625 C 31.6875 -32.613281 32.75 -29.484375 32.75 -25.171875 L 32.75 0 Z M 15.984375 -3.9375 C 19.460938 -3.9375 22.195312 -4.890625 24.1875 -6.796875 C 26.175781 -8.703125 27.171875 -11.375 27.171875 -14.8125 L 27.171875 -18.140625 L 21.578125 -17.90625 C 17.128906 -17.75 13.921875 -17.054688 11.953125 -15.828125 C 9.992188 -14.609375 9.015625 -12.707031 9.015625 -10.125 C 9.015625 -8.113281 9.625 -6.578125 10.84375 -5.515625 C 12.070312 -4.460938 13.785156 -3.9375 15.984375 -3.9375 Z M 15.984375 -3.9375 "/></g></g></g><g fill="#00bf63" fill-opacity="1"><g transform="translate(767.976476, 73.632512)"><g><path d="M 20.671875 0.671875 C 15.328125 0.671875 11.191406 -0.96875 8.265625 -4.25 C 5.335938 -7.539062 3.875 -12.191406 3.875 -18.203125 C 3.875 -24.378906 5.359375 -29.148438 8.328125 -32.515625 C 11.304688 -35.878906 15.539062 -37.5625 21.03125 -37.5625 C 22.8125 -37.5625 24.585938 -37.367188 26.359375 -36.984375 C 28.128906 -36.609375 29.519531 -36.160156 30.53125 -35.640625 L 28.8125 -30.90625 C 27.582031 -31.394531 26.238281 -31.800781 24.78125 -32.125 C 23.320312 -32.457031 22.03125 -32.625 20.90625 -32.625 C 13.40625 -32.625 9.65625 -27.84375 9.65625 -18.28125 C 9.65625 -13.75 10.566406 -10.269531 12.390625 -7.84375 C 14.222656 -5.414062 16.9375 -4.203125 20.53125 -4.203125 C 23.601562 -4.203125 26.753906 -4.863281 29.984375 -6.1875 L 29.984375 -1.25 C 27.523438 0.03125 24.421875 0.671875 20.671875 0.671875 Z M 25.640625 9.734375 C 25.640625 11.910156 24.78125 13.59375 23.0625 14.78125 C 21.351562 15.96875 18.816406 16.5625 15.453125 16.5625 C 14.304688 16.5625 13.226562 16.460938 12.21875 16.265625 L 12.21875 12.6875 C 13.226562 12.863281 14.394531 12.953125 15.71875 12.953125 C 17.488281 12.953125 18.828125 12.726562 19.734375 12.28125 C 20.640625 11.832031 21.09375 11.003906 21.09375 9.796875 C 21.09375 8.828125 20.648438 8.046875 19.765625 7.453125 C 18.878906 6.859375 17.210938 6.367188 14.765625 5.984375 L 17.734375 0 L 21.4375 0 L 19.59375 3.875 C 23.625 4.75 25.640625 6.703125 25.640625 9.734375 Z M 25.640625 9.734375 "/></g></g></g><g fill="#00bf63" fill-opacity="1"><g transform="translate(795.966518, 73.632512)"><g><path d="M 28.609375 0 L 27.5 -5.25 L 27.234375 -5.25 C 25.390625 -2.9375 23.550781 -1.367188 21.71875 -0.546875 C 19.894531 0.265625 17.613281 0.671875 14.875 0.671875 C 11.21875 0.671875 8.351562 -0.269531 6.28125 -2.15625 C 4.207031 -4.039062 3.171875 -6.722656 3.171875 -10.203125 C 3.171875 -17.648438 9.125 -21.550781 21.03125 -21.90625 L 27.296875 -22.109375 L 27.296875 -24.40625 C 27.296875 -27.300781 26.671875 -29.4375 25.421875 -30.8125 C 24.179688 -32.195312 22.191406 -32.890625 19.453125 -32.890625 C 16.378906 -32.890625 12.898438 -31.945312 9.015625 -30.0625 L 7.296875 -34.328125 C 9.117188 -35.316406 11.113281 -36.09375 13.28125 -36.65625 C 15.445312 -37.21875 17.617188 -37.5 19.796875 -37.5 C 24.191406 -37.5 27.445312 -36.519531 29.5625 -34.5625 C 31.6875 -32.613281 32.75 -29.484375 32.75 -25.171875 L 32.75 0 Z M 15.984375 -3.9375 C 19.460938 -3.9375 22.195312 -4.890625 24.1875 -6.796875 C 26.175781 -8.703125 27.171875 -11.375 27.171875 -14.8125 L 27.171875 -18.140625 L 21.578125 -17.90625 C 17.128906 -17.75 13.921875 -17.054688 11.953125 -15.828125 C 9.992188 -14.609375 9.015625 -12.707031 9.015625 -10.125 C 9.015625 -8.113281 9.625 -6.578125 10.84375 -5.515625 C 12.070312 -4.460938 13.785156 -3.9375 15.984375 -3.9375 Z M 24.28125 -41.84375 C 23.3125 -41.84375 22.363281 -42.050781 21.4375 -42.46875 C 20.519531 -42.882812 19.617188 -43.34375 18.734375 -43.84375 C 17.847656 -44.34375 16.992188 -44.800781 16.171875 -45.21875 C 15.359375 -45.632812 14.570312 -45.84375 13.8125 -45.84375 C 12.6875 -45.84375 11.835938 -45.503906 11.265625 -44.828125 C 10.691406 -44.160156 10.25 -43.140625 9.9375 -41.765625 L 6.640625 -41.765625 C 6.929688 -44.484375 7.71875 -46.609375 9 -48.140625 C 10.289062 -49.679688 11.960938 -50.453125 14.015625 -50.453125 C 15.046875 -50.453125 16.039062 -50.242188 17 -49.828125 C 17.96875 -49.421875 18.890625 -48.960938 19.765625 -48.453125 C 20.640625 -47.953125 21.476562 -47.492188 22.28125 -47.078125 C 23.09375 -46.660156 23.859375 -46.453125 24.578125 -46.453125 C 25.679688 -46.453125 26.5 -46.78125 27.03125 -47.4375 C 27.570312 -48.101562 28.007812 -49.132812 28.34375 -50.53125 L 31.6875 -50.53125 C 31.394531 -47.8125 30.613281 -45.679688 29.34375 -44.140625 C 28.070312 -42.609375 26.382812 -41.84375 24.28125 -41.84375 Z M 24.28125 -41.84375 "/></g></g></g><g fill="#00bf63" fill-opacity="1"><g transform="translate(829.476289, 73.632512)"><g><path d="M 37.765625 -18.484375 C 37.765625 -12.460938 36.25 -7.765625 33.21875 -4.390625 C 30.1875 -1.015625 26.003906 0.671875 20.671875 0.671875 C 17.367188 0.671875 14.4375 -0.0976562 11.875 -1.640625 C 9.320312 -3.191406 7.347656 -5.414062 5.953125 -8.3125 C 4.566406 -11.207031 3.875 -14.597656 3.875 -18.484375 C 3.875 -24.492188 5.375 -29.175781 8.375 -32.53125 C 11.382812 -35.882812 15.5625 -37.5625 20.90625 -37.5625 C 26.0625 -37.5625 30.160156 -35.84375 33.203125 -32.40625 C 36.242188 -28.976562 37.765625 -24.335938 37.765625 -18.484375 Z M 9.65625 -18.484375 C 9.65625 -13.765625 10.597656 -10.171875 12.484375 -7.703125 C 14.367188 -5.234375 17.140625 -4 20.796875 -4 C 24.460938 -4 27.242188 -5.226562 29.140625 -7.6875 C 31.035156 -10.144531 31.984375 -13.742188 31.984375 -18.484375 C 31.984375 -23.171875 31.035156 -26.726562 29.140625 -29.15625 C 27.242188 -31.59375 24.441406 -32.8125 20.734375 -32.8125 C 17.078125 -32.8125 14.316406 -31.609375 12.453125 -29.203125 C 10.585938 -26.804688 9.65625 -23.234375 9.65625 -18.484375 Z M 9.65625 -18.484375 "/></g></g></g><g fill="#00bf63" fill-opacity="1"><g transform="translate(866.284508, 73.632512)"><g/></g></g><g fill="#00bf63" fill-opacity="1"><g transform="translate(879.364285, 73.632512)"><g><path d="M 6.765625 -49.21875 L 20.671875 -49.21875 C 27.203125 -49.21875 31.925781 -48.238281 34.84375 -46.28125 C 37.757812 -44.332031 39.21875 -41.25 39.21875 -37.03125 C 39.21875 -34.113281 38.398438 -31.707031 36.765625 -29.8125 C 35.140625 -27.914062 32.769531 -26.6875 29.65625 -26.125 L 29.65625 -25.78125 C 37.125 -24.5 40.859375 -20.570312 40.859375 -14 C 40.859375 -9.601562 39.367188 -6.171875 36.390625 -3.703125 C 33.421875 -1.234375 29.269531 0 23.9375 0 L 6.765625 0 Z M 12.484375 -28.140625 L 21.90625 -28.140625 C 25.945312 -28.140625 28.851562 -28.769531 30.625 -30.03125 C 32.40625 -31.300781 33.296875 -33.441406 33.296875 -36.453125 C 33.296875 -39.210938 32.304688 -41.203125 30.328125 -42.421875 C 28.347656 -43.648438 25.207031 -44.265625 20.90625 -44.265625 L 12.484375 -44.265625 Z M 12.484375 -23.296875 L 12.484375 -4.875 L 22.75 -4.875 C 26.726562 -4.875 29.71875 -5.644531 31.71875 -7.1875 C 33.726562 -8.726562 34.734375 -11.132812 34.734375 -14.40625 C 34.734375 -17.457031 33.707031 -19.703125 31.65625 -21.140625 C 29.601562 -22.578125 26.476562 -23.296875 22.28125 -23.296875 Z M 12.484375 -23.296875 "/></g></g></g><g fill="#00bf63" fill-opacity="1"><g transform="translate(919.201627, 73.632512)"><g><path d="M 22.75 -37.5625 C 24.394531 -37.5625 25.867188 -37.425781 27.171875 -37.15625 L 26.390625 -31.984375 C 24.859375 -32.316406 23.507812 -32.484375 22.34375 -32.484375 C 19.363281 -32.484375 16.8125 -31.269531 14.6875 -28.84375 C 12.570312 -26.425781 11.515625 -23.410156 11.515625 -19.796875 L 11.515625 0 L 5.921875 0 L 5.921875 -36.890625 L 10.53125 -36.890625 L 11.171875 -30.0625 L 11.4375 -30.0625 C 12.8125 -32.457031 14.460938 -34.304688 16.390625 -35.609375 C 18.316406 -36.910156 20.4375 -37.5625 22.75 -37.5625 Z M 22.75 -37.5625 "/></g></g></g><g fill="#00bf63" fill-opacity="1"><g transform="translate(942.513288, 73.632512)"><g><path d="M 28.609375 0 L 27.5 -5.25 L 27.234375 -5.25 C 25.390625 -2.9375 23.550781 -1.367188 21.71875 -0.546875 C 19.894531 0.265625 17.613281 0.671875 14.875 0.671875 C 11.21875 0.671875 8.351562 -0.269531 6.28125 -2.15625 C 4.207031 -4.039062 3.171875 -6.722656 3.171875 -10.203125 C 3.171875 -17.648438 9.125 -21.550781 21.03125 -21.90625 L 27.296875 -22.109375 L 27.296875 -24.40625 C 27.296875 -27.300781 26.671875 -29.4375 25.421875 -30.8125 C 24.179688 -32.195312 22.191406 -32.890625 19.453125 -32.890625 C 16.378906 -32.890625 12.898438 -31.945312 9.015625 -30.0625 L 7.296875 -34.328125 C 9.117188 -35.316406 11.113281 -36.09375 13.28125 -36.65625 C 15.445312 -37.21875 17.617188 -37.5 19.796875 -37.5 C 24.191406 -37.5 27.445312 -36.519531 29.5625 -34.5625 C 31.6875 -32.613281 32.75 -29.484375 32.75 -25.171875 L 32.75 0 Z M 15.984375 -3.9375 C 19.460938 -3.9375 22.195312 -4.890625 24.1875 -6.796875 C 26.175781 -8.703125 27.171875 -11.375 27.171875 -14.8125 L 27.171875 -18.140625 L 21.578125 -17.90625 C 17.128906 -17.75 13.921875 -17.054688 11.953125 -15.828125 C 9.992188 -14.609375 9.015625 -12.707031 9.015625 -10.125 C 9.015625 -8.113281 9.625 -6.578125 10.84375 -5.515625 C 12.070312 -4.460938 13.785156 -3.9375 15.984375 -3.9375 Z M 15.984375 -3.9375 "/></g></g></g><g fill="#00bf63" fill-opacity="1"><g transform="translate(976.023059, 73.632512)"><g><path d="M 29.71875 -10.0625 C 29.71875 -6.632812 28.4375 -3.988281 25.875 -2.125 C 23.320312 -0.257812 19.734375 0.671875 15.109375 0.671875 C 10.222656 0.671875 6.410156 -0.101562 3.671875 -1.65625 L 3.671875 -6.828125 C 5.441406 -5.929688 7.34375 -5.222656 9.375 -4.703125 C 11.40625 -4.191406 13.363281 -3.9375 15.25 -3.9375 C 18.164062 -3.9375 20.410156 -4.398438 21.984375 -5.328125 C 23.554688 -6.265625 24.34375 -7.6875 24.34375 -9.59375 C 24.34375 -11.03125 23.71875 -12.257812 22.46875 -13.28125 C 21.21875 -14.300781 18.789062 -15.503906 15.1875 -16.890625 C 11.75 -18.171875 9.304688 -19.285156 7.859375 -20.234375 C 6.410156 -21.191406 5.332031 -22.273438 4.625 -23.484375 C 3.914062 -24.703125 3.5625 -26.15625 3.5625 -27.84375 C 3.5625 -30.84375 4.785156 -33.210938 7.234375 -34.953125 C 9.679688 -36.691406 13.035156 -37.5625 17.296875 -37.5625 C 21.273438 -37.5625 25.160156 -36.753906 28.953125 -35.140625 L 26.96875 -30.59375 C 23.257812 -32.125 19.898438 -32.890625 16.890625 -32.890625 C 14.242188 -32.890625 12.25 -32.472656 10.90625 -31.640625 C 9.5625 -30.804688 8.890625 -29.660156 8.890625 -28.203125 C 8.890625 -27.222656 9.140625 -26.382812 9.640625 -25.6875 C 10.148438 -24.988281 10.960938 -24.320312 12.078125 -23.6875 C 13.203125 -23.0625 15.359375 -22.15625 18.546875 -20.96875 C 22.921875 -19.375 25.875 -17.769531 27.40625 -16.15625 C 28.945312 -14.539062 29.71875 -12.507812 29.71875 -10.0625 Z M 29.71875 -10.0625 "/></g></g></g><g fill="#00bf63" fill-opacity="1"><g transform="translate(1004.080382, 73.632512)"><g><path d="M 11.515625 0 L 5.921875 0 L 5.921875 -36.890625 L 11.515625 -36.890625 Z M 5.453125 -46.890625 C 5.453125 -48.171875 5.765625 -49.109375 6.390625 -49.703125 C 7.023438 -50.296875 7.8125 -50.59375 8.75 -50.59375 C 9.644531 -50.59375 10.414062 -50.289062 11.0625 -49.6875 C 11.71875 -49.082031 12.046875 -48.148438 12.046875 -46.890625 C 12.046875 -45.628906 11.71875 -44.691406 11.0625 -44.078125 C 10.414062 -43.460938 9.644531 -43.15625 8.75 -43.15625 C 7.8125 -43.15625 7.023438 -43.460938 6.390625 -44.078125 C 5.765625 -44.691406 5.453125 -45.628906 5.453125 -46.890625 Z M 5.453125 -46.890625 "/></g></g></g><g fill="#00bf63" fill-opacity="1"><g transform="translate(1016.688991, 73.632512)"><g><path d="M 11.515625 0 L 5.921875 0 L 5.921875 -52.375 L 11.515625 -52.375 Z M 11.515625 0 "/></g></g></g></g></g></g></g></svg>